<svg width="66" height="66" viewBox="0 0 66 66" xmlns="http://www.w3.org/2000/svg" fill="none"><path d="M66 33c0 18.225-14.775 33-33 33s-33-14.775-33-33 14.775-33 33-33 33 14.775 33 33z" fill="#E5EBEF"/><circle cx="33" cy="33" r="31" fill="#166497"/><path fill-rule="evenodd" clip-rule="evenodd" d="M62.399 42.861c-4.12 12.286-15.725 21.139-29.399 21.139-13.673 0-25.279-8.852-29.399-21.139 9.626-1.228 19.438-1.861 29.399-1.861 9.96 0 19.772.633 29.399 1.861z" fill="#87C8ED"/><path d="M22.636 18.695h-.007c-.105-1.504-1.48-2.695-3.159-2.695-1.55 0-2.84 1.014-3.113 2.351l-.107-.002c-1.155 0-2.129.696-2.447 1.651l-.149-.006c-.912 0-1.652.672-1.652 1.503 0 .831.739 1.503 1.651 1.503h8.983c1.307 0 2.366-.964 2.366-2.152 0-1.188-1.057-2.153-2.364-2.153zM58.636 29.695h-.007c-.105-1.504-1.48-2.695-3.159-2.695-1.55 0-2.84 1.014-3.113 2.351l-.107-.002c-1.155 0-2.129.696-2.447 1.651l-.15-.006c-.912 0-1.652.672-1.652 1.503 0 .831.739 1.503 1.651 1.503h8.983c1.307 0 2.366-.964 2.366-2.152 0-1.188-1.057-2.153-2.364-2.153z" fill="#fff"/><path d="M20.5 54c-2.8-2.4-8.833-2-11.5-1.5 1.333 1.667 4.4 5.2 6 6 2 1 8.5 4.5 12.5 5.5s8.5.5 10 0 1-4-1.5-4-2-.5-2.5-.5 1.5-2-1.5-2-1.5.5-4 0-4.5 0-6.5 0-1.5-1.5-1-1.5 3.5 1 0-2zM56.773 44.5c3.6.8 4.5 3 4.5 4-.833 1.167-2.6 3.7-3 4.5-.5 1-2.5 3-3.5 4s-3.5 2.5-4 3c-.4.4-4.167 1.833-6 2.5-.333 0-1.3-.1-2.5-.5-1.5-.5.5-3 1.5-3.5s2-2.5 3-3.5-1-.5-2-.5-1 2-2 2.5-1.5.5-2-1-1-.5-2.5-1-1.5.5-3 .5-1-.5-1-2-1.5-1.5-3-1.5.5 3 0 3.5-1 .5-2-.5-1.5 0-3.5-.5-1.5-1.5-2-2.5-2.5-.5-3.5-.5-3-1.5-2-2.5 1-.5.5-1.5 1.5 0 3.5-.5 1.5-1.5 1-2l-3-1c-.5-.5 1.5-1 2.5-1l3-1.5c1 0 1.5 1 1 1.5s-1.5 2 0 2 2.5 0 3.5 1.5 2-1 4-1.5 3 .5 2 1.5-.5 1 1 2.5 2 0 3.5-.5 2 1.5 3 2 1.5 1 3 1 5-1 3-1.5-2-1-3-1.5 2.5 0 4-1 .5-.5 0-1-3 0-4 0-.5 3.5-4 1 1.5-4 3.5-4 6 0 10.5 1z" fill="#228C01"/><path d="M15.878 41.628c-4.123.303-8.216.716-12.276 1.233.647 1.928 1.477 3.772 2.472 5.51.255.207.427.275.427.129 0-.5.5-3 1.5-4 .732-.732.928-.392 1.177.038.091.158.189.328.323.462l.212.228c.554.615 1.538 1.709 3.288 1.272 1.166-.292 1.142-1.093 1.118-1.909-.017-.583-.035-1.174.382-1.591l.398-.384c.314-.298.674-.641.98-.989z" fill="#228C02"/><path fill-rule="evenodd" clip-rule="evenodd" d="M33 63c16.569 0 30-13.431 30-30 0-16.569-13.431-30-30-30-16.569 0-30 13.431-30 30 0 16.569 13.431 30 30 30zm0 3c18.225 0 33-14.775 33-33s-14.775-33-33-33-33 14.775-33 33 14.775 33 33 33z" fill="#E5EBEF"/><path d="M14.122 35.821c-.567-.529-1.32-.821-2.122-.821-.801 0-1.555.291-2.121.821-1.049.979-1.179 2.822-.282 3.938l2.404 3.242 2.4-3.237c.9-1.121.77-2.963-.279-3.942zm-2.094 2.978c-.604 0-1.095-.459-1.095-1.023 0-.564.492-1.023 1.095-1.023.604 0 1.095.459 1.095 1.023 0 .564-.491 1.023-1.095 1.023zM28.122 50.821c-.567-.529-1.32-.821-2.122-.821-.802 0-1.555.291-2.122.821-1.049.979-1.179 2.822-.282 3.938l2.404 3.242 2.4-3.237c.9-1.121.77-2.963-.279-3.942zm-2.094 2.978c-.604 0-1.095-.459-1.095-1.023 0-.564.491-1.023 1.095-1.023s1.095.459 1.095 1.023c0 .564-.491 1.023-1.095 1.023zM55.122 45.821c-.567-.529-1.32-.821-2.121-.821-.802 0-1.555.291-2.122.821-1.049.979-1.179 2.822-.282 3.938l2.404 3.242 2.4-3.237c.9-1.121.77-2.963-.279-3.942zm-2.094 2.978c-.604 0-1.095-.459-1.095-1.023 0-.564.492-1.023 1.095-1.023.604 0 1.095.459 1.095 1.023 0 .564-.491 1.023-1.095 1.023z" fill="#FEDB37"/><path d="M51.926 19.077c-1.983-1.984-4.62-3.077-7.425-3.077-2.805 0-5.442 1.093-7.425 3.077-3.67 3.672-4.127 10.581-.988 14.766l8.413 12.156 8.4-12.139c3.151-4.203 2.695-11.111-.975-14.783z" fill="url(#a)" filter="url(#b)"/><path d="M44.5 21c-.828 0-1.5.672-1.5 1.5v3.5h-3.5c-.828 0-1.5.672-1.5 1.5s.672 1.5 1.5 1.5h3.5v3.5c0 .828.672 1.5 1.5 1.5s1.5-.672 1.5-1.5v-3.5h3.5c.828 0 1.5-.672 1.5-1.5s-.672-1.5-1.5-1.5h-3.5v-3.5c0-.828-.672-1.5-1.5-1.5z" fill="#135B88"/><defs><filter id="b" x="26" y="12" width="37" height="46" filterUnits="userSpaceOnUse" color-interpolation-filters="sRGB"><feFlood flood-opacity="0" result="BackgroundImageFix"/><feColorMatrix in="SourceAlpha" values="0 0 0 0 0 0 0 0 0 0 0 0 0 0 0 0 0 0 127 0"/><feOffset dy="4"/><feGaussianBlur stdDeviation="4"/><feColorMatrix values="0 0 0 0 0 0 0 0 0 0.138228 0 0 0 0 0.229167 0 0 0 0.5 0"/><feBlend in2="BackgroundImageFix" result="effect1_dropShadow"/><feBlend in="SourceGraphic" in2="effect1_dropShadow" result="shape"/></filter><linearGradient id="a" x1="55" y1="46" x2="34" y2="46" gradientUnits="userSpaceOnUse"><stop stop-color="#FFDC37"/><stop offset=".479" stop-color="#F3D24C"/><stop offset=".51" stop-color="#E3C469"/><stop offset="1" stop-color="#F5C434"/></linearGradient></defs></svg>