<svg width="66" height="66" viewBox="0 0 66 66" xmlns="http://www.w3.org/2000/svg" fill="none">
	<path d="M66 33c0 18.225-14.775 33-33 33s-33-14.775-33-33 14.775-33 33-33 33 14.775 33 33z" fill="#E5EBEF"/>
	<circle cx="33" cy="33" r="31" fill="#166497"/>
	<path d="M30.171 60c.301.852.977 1.528 1.829 1.829v3.171h2v-3.171c.852-.301 1.528-.977 1.829-1.829h15.171v-2h-15.171c-.301-.852-.977-1.528-1.829-1.829v-38.171h-2v38.171c-.852.301-1.528.977-1.829 1.829h-15.171v2h15.171z" fill="#61ABD2"/>
	<path fill-rule="evenodd" clip-rule="evenodd" d="M33 63c16.569 0 30-13.431 30-30 0-16.569-13.431-30-30-30-16.569 0-30 13.431-30 30 0 16.569 13.431 30 30 30zm0 3c18.225 0 33-14.775 33-33s-14.775-33-33-33-33 14.775-33 33 14.775 33 33 33z" fill="#E5EBEF"/>
	<rect x="9" y="41" width="48" height="12" rx="2" fill="url(#a)" filter="url(#b)"/>
	<circle cx="51" cy="47" r="3" fill="#5A9F08"/>
	<circle cx="45" cy="47" r="1" fill="#B46E73"/>
	<circle cx="42" cy="47" r="1" fill="#3377A0"/>
	<circle cx="13" cy="47" r="1" fill="#203553"/>
	<circle cx="13" cy="44" r="1" fill="#203553"/>
	<circle cx="13" cy="50" r="1" fill="#203553"/>
	<circle cx="16" cy="47" r="1" fill="#203553"/>
	<circle cx="16" cy="44" r="1" fill="#203553"/>
	<circle cx="16" cy="50" r="1" fill="#203553"/>
	<circle cx="19" cy="47" r="1" fill="#203553"/>
	<circle cx="19" cy="44" r="1" fill="#203553"/>
	<circle cx="19" cy="50" r="1" fill="#203553"/>
	<circle cx="22" cy="47" r="1" fill="#203553"/>
	<circle cx="22" cy="44" r="1" fill="#203553"/>
	<circle cx="22" cy="50" r="1" fill="#203553"/>
	<circle cx="25" cy="47" r="1" fill="#203553"/>
	<circle cx="25" cy="44" r="1" fill="#203553"/>
	<circle cx="25" cy="50" r="1" fill="#203553"/>
	<circle cx="28" cy="47" r="1" fill="#203553"/>
	<circle cx="28" cy="44" r="1" fill="#203553"/>
	<circle cx="28" cy="50" r="1" fill="#203553"/>
	<circle cx="31" cy="47" r="1" fill="#203553"/>
	<circle cx="31" cy="44" r="1" fill="#203553"/>
	<circle cx="31" cy="50" r="1" fill="#203553"/>
	<circle cx="34" cy="47" r="1" fill="#203553"/>
	<circle cx="34" cy="44" r="1" fill="#203553"/>
	<circle cx="34" cy="50" r="1" fill="#203553"/>
	<rect x="9" y="26" width="48" height="12" rx="2" fill="url(#c)" filter="url(#d)"/>
	<circle cx="51" cy="32" r="3" fill="#5A9F08"/>
	<circle cx="45" cy="32" r="1" fill="#B46E73"/>
	<circle cx="42" cy="32" r="1" fill="#3377A0"/>
	<circle cx="13" cy="32" r="1" fill="#203553"/>
	<circle cx="13" cy="29" r="1" fill="#203553"/>
	<circle cx="13" cy="35" r="1" fill="#203553"/>
	<circle cx="16" cy="32" r="1" fill="#203553"/>
	<circle cx="16" cy="29" r="1" fill="#203553"/>
	<circle cx="16" cy="35" r="1" fill="#203553"/>
	<circle cx="19" cy="32" r="1" fill="#203553"/>
	<circle cx="19" cy="29" r="1" fill="#203553"/>
	<circle cx="19" cy="35" r="1" fill="#203553"/>
	<circle cx="22" cy="32" r="1" fill="#203553"/>
	<circle cx="22" cy="29" r="1" fill="#203553"/>
	<circle cx="22" cy="35" r="1" fill="#203553"/>
	<circle cx="25" cy="32" r="1" fill="#203553"/>
	<circle cx="25" cy="29" r="1" fill="#203553"/>
	<circle cx="25" cy="35" r="1" fill="#203553"/>
	<circle cx="28" cy="32" r="1" fill="#203553"/>
	<circle cx="28" cy="29" r="1" fill="#203553"/>
	<circle cx="28" cy="35" r="1" fill="#203553"/>
	<circle cx="31" cy="32" r="1" fill="#203553"/>
	<circle cx="31" cy="29" r="1" fill="#203553"/>
	<circle cx="31" cy="35" r="1" fill="#203553"/>
	<circle cx="34" cy="32" r="1" fill="#203553"/>
	<circle cx="34" cy="29" r="1" fill="#203553"/>
	<circle cx="34" cy="35" r="1" fill="#203553"/>
	<rect x="9" y="11" width="48" height="12" rx="2" fill="url(#e)" filter="url(#f)"/>
	<circle cx="13" cy="17" r="1" fill="#88793E"/>
	<circle cx="13" cy="14" r="1" fill="#88793E"/>
	<circle cx="13" cy="20" r="1" fill="#88793E"/>
	<circle cx="16" cy="17" r="1" fill="#88793E"/>
	<circle cx="16" cy="14" r="1" fill="#88793E"/>
	<circle cx="16" cy="20" r="1" fill="#88793E"/>
	<circle cx="19" cy="17" r="1" fill="#88793E"/>
	<circle cx="19" cy="14" r="1" fill="#88793E"/>
	<circle cx="19" cy="20" r="1" fill="#88793E"/>
	<circle cx="22" cy="17" r="1" fill="#88793E"/>
	<circle cx="22" cy="14" r="1" fill="#88793E"/>
	<circle cx="22" cy="20" r="1" fill="#88793E"/>
	<circle cx="25" cy="17" r="1" fill="#88793E"/>
	<circle cx="25" cy="14" r="1" fill="#88793E"/>
	<circle cx="25" cy="20" r="1" fill="#88793E"/>
	<circle cx="28" cy="17" r="1" fill="#88793E"/>
	<circle cx="28" cy="14" r="1" fill="#88793E"/>
	<circle cx="28" cy="20" r="1" fill="#88793E"/>
	<circle cx="31" cy="17" r="1" fill="#88793E"/>
	<circle cx="31" cy="14" r="1" fill="#88793E"/>
	<circle cx="31" cy="20" r="1" fill="#88793E"/>
	<circle cx="34" cy="17" r="1" fill="#88793E"/>
	<circle cx="34" cy="14" r="1" fill="#88793E"/>
	<circle cx="34" cy="20" r="1" fill="#88793E"/>
	<path d="M47 13c-.552 0-1 .448-1 1v2h-2c-.552 0-1 .448-1 1s.448 1 1 1h2v2c0 .552.448 1 1 1s1-.448 1-1v-2h2c.552 0 1-.448 1-1s-.448-1-1-1h-2v-2c0-.552-.448-1-1-1z" fill="#135B88"/>
	<defs>
		<filter id="b" x="5" y="39" width="56" height="20" filterUnits="userSpaceOnUse" color-interpolation-filters="sRGB">
			<feFlood flood-opacity="0" result="BackgroundImageFix"/>
			<feColorMatrix in="SourceAlpha" values="0 0 0 0 0 0 0 0 0 0 0 0 0 0 0 0 0 0 127 0"/>
			<feOffset dy="2"/>
			<feGaussianBlur stdDeviation="2"/>
			<feColorMatrix values="0 0 0 0 0 0 0 0 0 0.108297 0 0 0 0 0.1875 0 0 0 0.5 0"/>
			<feBlend in2="BackgroundImageFix" result="effect1_dropShadow"/>
			<feBlend in="SourceGraphic" in2="effect1_dropShadow" result="shape"/>
		</filter>
		<filter id="d" x="5" y="24" width="56" height="20" filterUnits="userSpaceOnUse" color-interpolation-filters="sRGB">
			<feFlood flood-opacity="0" result="BackgroundImageFix"/>
			<feColorMatrix in="SourceAlpha" values="0 0 0 0 0 0 0 0 0 0 0 0 0 0 0 0 0 0 127 0"/>
			<feOffset dy="2"/>
			<feGaussianBlur stdDeviation="2"/>
			<feColorMatrix values="0 0 0 0 0 0 0 0 0 0.108297 0 0 0 0 0.1875 0 0 0 0.5 0"/>
			<feBlend in2="BackgroundImageFix" result="effect1_dropShadow"/>
			<feBlend in="SourceGraphic" in2="effect1_dropShadow" result="shape"/>
		</filter>
		<filter id="f" x="5" y="9" width="56" height="20" filterUnits="userSpaceOnUse" color-interpolation-filters="sRGB">
			<feFlood flood-opacity="0" result="BackgroundImageFix"/>
			<feColorMatrix in="SourceAlpha" values="0 0 0 0 0 0 0 0 0 0 0 0 0 0 0 0 0 0 127 0"/>
			<feOffset dy="2"/>
			<feGaussianBlur stdDeviation="2"/>
			<feColorMatrix values="0 0 0 0 0 0 0 0 0 0.108297 0 0 0 0 0.1875 0 0 0 0.5 0"/>
			<feBlend in2="BackgroundImageFix" result="effect1_dropShadow"/>
			<feBlend in="SourceGraphic" in2="effect1_dropShadow" result="shape"/>
		</filter>
		<linearGradient id="a" x1="33" y1="41" x2="33" y2="53" gradientUnits="userSpaceOnUse">
			<stop stop-color="#A0D6F2"/>
			<stop offset=".5" stop-color="#A0D6F2"/>
			<stop offset=".5" stop-color="#8ABBD4"/>
			<stop offset="1" stop-color="#8ABBD4"/>
		</linearGradient>
		<linearGradient id="c" x1="33" y1="26" x2="33" y2="38" gradientUnits="userSpaceOnUse">
			<stop stop-color="#A0D6F2"/>
			<stop offset=".5" stop-color="#A0D6F2"/>
			<stop offset=".5" stop-color="#8ABBD4"/>
			<stop offset="1" stop-color="#8ABBD4"/>
		</linearGradient>
		<linearGradient id="e" x1="33" y1="11" x2="33" y2="23" gradientUnits="userSpaceOnUse">
			<stop stop-color="#FEDB37"/>
			<stop offset=".5" stop-color="#FEDB37"/>
			<stop offset=".5" stop-color="#EFBE2F"/>
			<stop offset="1" stop-color="#EFBE2F"/>
		</linearGradient>
	</defs>
</svg>
