<svg width="67" height="66" viewBox="0 0 67 66" xmlns="http://www.w3.org/2000/svg" fill="none"><path d="M66 33c0 18.225-14.775 33-33 33s-33-14.775-33-33 14.775-33 33-33 33 14.775 33 33z" fill="#E5EBEF"/><path d="M64 33c0 17.121-13.879 31-31 31-17.121 0-31-13.879-31-31 0-17.121 13.879-31 31-31 17.121 0 31 13.879 31 31z" fill="#166497"/><path d="M17.139 20.809c-1.081 1.404-1.955 2.929-2.616 4.529l2.772 1.149c.562-1.36 1.305-2.656 2.224-3.85l-2.379-1.829zM22.656 19.509l-1.825-2.381.007-.005c1.421-1.089 2.942-1.958 4.522-2.611l1.146 2.773c-1.343.556-2.635 1.294-3.844 2.22l-.006.004zM20.311 23.247c-.864 1.123-1.564 2.343-2.093 3.623l.924.383c.496-1.2 1.152-2.344 1.962-3.397l-.793-.61zM23.873 21.096l-.608-.794.005-.004c1.137-.871 2.354-1.566 3.617-2.089l.382.925c-1.184.49-2.325 1.142-3.391 1.959l-.005.004zM31.047 18.125l-.13-.992c1.393-.181 2.8-.178 4.184.005l-.131.991c-1.297-.172-2.616-.175-3.922-.005zM38.746 19.142l.383-.924c1.28.529 2.5 1.229 3.623 2.093l-.609.793c-1.053-.81-2.197-1.466-3.397-1.962zM44.904 23.873l.794-.608.004.005c.823 1.075 1.49 2.221 2.002 3.411l-.919.395c-.48-1.115-1.105-2.19-1.877-3.198l-.004-.005zM21.097 42.128l-.794.609-.005-.007c-.871-1.137-1.566-2.354-2.089-3.617l.924-.382c.491 1.185 1.142 2.325 1.959 3.391l.005.007zM18.125 34.953l-.992.13c-.182-1.393-.178-2.8.005-4.184l.991.131c-.172 1.297-.175 2.617-.005 3.922zM16.147 30.768l-2.974-.394c-.229 1.729-.233 3.489-.006 5.23l2.975-.39c-.193-1.48-.189-2.976.006-4.445zM17.285 39.495l-2.773 1.146c.654 1.579 1.523 3.1 2.612 4.522l.007.009 2.381-1.826-.006-.007c-.925-1.208-1.664-2.501-2.22-3.843zM48.622 26.286l2.757-1.185c-.64-1.487-1.473-2.92-2.502-4.264l-.005-.007-2.381 1.825.004.006c.875 1.142 1.583 2.36 2.127 3.624zM43.362 19.518l1.829-2.379c-1.404-1.081-2.929-1.955-4.529-2.617l-1.149 2.772c1.36.563 2.656 1.306 3.85 2.224zM35.232 16.147l.394-2.974c-1.729-.229-3.488-.233-5.23-.006l.39 2.975c1.48-.193 2.975-.189 4.445.006z" fill="#FEDB37"/><path d="M14.749 46.997l-.008-.01c-7.725-10.084-5.812-24.52 4.271-32.245 10.084-7.725 24.52-5.812 32.245 4.271 1.184 1.545 2.141 3.193 2.878 4.903l-3.676 1.58c-.608-1.413-1.399-2.774-2.377-4.05-6.381-8.33-18.307-9.91-26.637-3.529-8.33 6.381-9.91 18.307-3.529 26.637l.006.008-3.174 2.434z" fill="#79B9D9"/><path d="M11 55c5.604 5.563 13.321 9 21.84 9 8.52 0 16.237-3.437 21.84-9h-43.681z" fill="#87C8ED"/><circle cx="33" cy="58" r="1" fill="#5D8DAF"/><circle cx="36" cy="58" r="1" fill="#5D8DAF"/><circle cx="39" cy="58" r="1" fill="#5D8DAF"/><circle cx="42" cy="58" r="1" fill="#5D8DAF"/><circle cx="30" cy="58" r="1" fill="#5D8DAF"/><circle cx="27" cy="58" r="1" fill="#5D8DAF"/><circle cx="24" cy="58" r="1" fill="#5D8DAF"/><rect x="26" y="24" width="2" height="4" rx="1" fill="#3A86B0"/><rect x="29" y="24" width="2" height="4" rx="1" fill="#3A86B0"/><rect x="32" y="24" width="2" height="4" rx="1" fill="#3A86B0"/><rect x="35" y="24" width="2" height="4" rx="1" fill="#3A86B0"/><rect x="38" y="24" width="2" height="4" rx="1" fill="#3A86B0"/><path opacity=".1" d="M33 1.998c6.584-.005 13.221 2.079 18.852 6.393 13.591 10.412 16.169 29.87 5.757 43.461-6.098 7.961-15.3 12.143-24.609 12.15v-62.003z" fill="#fff"/><path fill-rule="evenodd" clip-rule="evenodd" d="M33 63c16.569 0 30-13.431 30-30 0-16.569-13.431-30-30-30-16.569 0-30 13.431-30 30 0 16.569 13.431 30 30 30zm0 3c18.225 0 33-14.775 33-33s-14.775-33-33-33-33 14.775-33 33 14.775 33 33 33z" fill="#E5EBEF"/><path d="M62.602 25.119c-8.704 1.897-27.415 6.434-32.627 9.408-6.514 3.717-4.843 9.672-3.851 11.409.991 1.737 5.268 6.205 11.782 2.487 5.211-2.974 18.635-16.776 24.696-23.305z" fill="#F5BA1C" filter="url(#a)"/><circle cx="33.073" cy="41.971" r="6" transform="rotate(60.288 33.073 41.971)" fill="#166497"/><circle cx="33.073" cy="41.971" r="3" transform="rotate(60.288 33.073 41.971)" fill="#5A9F08"/><path opacity=".3" d="M26.125 45.936c-.991-1.737-2.662-7.692 3.851-11.409 5.211-2.974 23.922-7.511 32.627-9.408l-36.478 20.817z" fill="#fff"/><defs><filter id="a" x="21.172" y="25.119" width="45.43" height="32.742" filterUnits="userSpaceOnUse" color-interpolation-filters="sRGB"><feFlood flood-opacity="0" result="BackgroundImageFix"/><feColorMatrix in="SourceAlpha" values="0 0 0 0 0 0 0 0 0 0 0 0 0 0 0 0 0 0 127 0"/><feOffset dy="4"/><feGaussianBlur stdDeviation="2"/><feColorMatrix values="0 0 0 0 0 0 0 0 0 0.148348 0 0 0 0 0.245833 0 0 0 0.25 0"/><feBlend in2="BackgroundImageFix" result="effect1_dropShadow"/><feBlend in="SourceGraphic" in2="effect1_dropShadow" result="shape"/></filter></defs></svg>