<?xml version="1.0" encoding="UTF-8"?>
<!DOCTYPE svg PUBLIC "-//W3C//DTD SVG 1.1//EN" "http://www.w3.org/Graphics/SVG/1.1/DTD/svg11.dtd">
<svg xmlns="http://www.w3.org/2000/svg" xml:space="preserve" width="674" height="200" version="1.1" style="shape-rendering:geometricPrecision; text-rendering:geometricPrecision; image-rendering:optimizeQuality; fill-rule:evenodd; clip-rule:evenodd" viewBox="922 10306 307 556" xmlns:xlink="http://www.w3.org/1999/xlink">
 <defs>
  <style type="text/css">
   <![CDATA[
    .fil1 {fill:black}
    .fil3 {fill:#00C1FF}
    .fil4 {fill:#00C2FF}
    .fil5 {fill:#00C3FF}
    .fil6 {fill:#00C4FF}
    .fil7 {fill:#00C5FF}
    .fil207 {fill:#00C6DF}
    .fil8 {fill:#00C6FF}
    .fil9 {fill:#00C7FF}
    .fil10 {fill:#00C8FF}
    .fil11 {fill:#00C9FF}
    .fil12 {fill:#00CAFF}
    .fil13 {fill:#00CBFF}
    .fil14 {fill:#00CCFF}
    .fil15 {fill:#00CDFF}
    .fil16 {fill:#00CEFF}
    .fil17 {fill:#00CFFF}
    .fil18 {fill:#00D0FF}
    .fil19 {fill:#00D1FF}
    .fil20 {fill:#00D2FF}
    .fil21 {fill:#00D3FF}
    .fil22 {fill:#00D4FF}
    .fil23 {fill:#00D5FF}
    .fil24 {fill:#00D6FF}
    .fil25 {fill:#00D7FF}
    .fil26 {fill:#00D8FF}
    .fil27 {fill:#00D9FF}
    .fil28 {fill:#00DAFF}
    .fil29 {fill:#00DBFF}
    .fil30 {fill:#00DCFF}
    .fil31 {fill:#00DDFF}
    .fil32 {fill:#00DEFF}
    .fil33 {fill:#00DFFF}
    .fil34 {fill:#00E0FF}
    .fil35 {fill:#00E1FF}
    .fil36 {fill:#00E2FF}
    .fil164 {fill:#00EE75}
    .fil165 {fill:#00EF75}
    .fil162 {fill:#01ED75}
    .fil163 {fill:#01EE75}
    .fil160 {fill:#02EB75}
    .fil161 {fill:#02EC75}
    .fil158 {fill:#03EA75}
    .fil159 {fill:#03EB75}
    .fil156 {fill:#04E875}
    .fil157 {fill:#04E975}
    .fil154 {fill:#05E775}
    .fil155 {fill:#05E875}
    .fil152 {fill:#06E574}
    .fil153 {fill:#06E674}
    .fil149 {fill:#07E374}
    .fil150 {fill:#07E474}
    .fil151 {fill:#07E574}
    .fil147 {fill:#08E274}
    .fil148 {fill:#08E374}
    .fil144 {fill:#09E074}
    .fil145 {fill:#09E174}
    .fil146 {fill:#09E274}
    .fil142 {fill:#0ADF74}
    .fil143 {fill:#0AE074}
    .fil140 {fill:#0BDD74}
    .fil141 {fill:#0BDE74}
    .fil138 {fill:#0CDC74}
    .fil139 {fill:#0CDD74}
    .fil136 {fill:#0DDA74}
    .fil137 {fill:#0DDB74}
    .fil134 {fill:#0ED874}
    .fil135 {fill:#0ED974}
    .fil132 {fill:#0FD774}
    .fil133 {fill:#0FD874}
    .fil130 {fill:#10D574}
    .fil131 {fill:#10D674}
    .fil127 {fill:#11D374}
    .fil128 {fill:#11D474}
    .fil129 {fill:#11D574}
    .fil125 {fill:#12D274}
    .fil126 {fill:#12D374}
    .fil248 {fill:#3FD0FF}
    .fil249 {fill:#3FD1FF}
    .fil250 {fill:#3FD2FF}
    .fil251 {fill:#3FD3FF}
    .fil252 {fill:#3FD4FF}
    .fil230 {fill:#404040}
    .fil282 {fill:#40F297}
    .fil283 {fill:#40F397}
    .fil279 {fill:#41F097}
    .fil280 {fill:#41F197}
    .fil281 {fill:#41F297}
    .fil276 {fill:#42EE97}
    .fil277 {fill:#42EF97}
    .fil278 {fill:#42F097}
    .fil274 {fill:#43ED97}
    .fil275 {fill:#43EE97}
    .fil272 {fill:#44EB97}
    .fil273 {fill:#44EC97}
    .fil270 {fill:#45EA97}
    .fil271 {fill:#45EB97}
    .fil268 {fill:#46E897}
    .fil269 {fill:#46E997}
    .fil266 {fill:#47E797}
    .fil267 {fill:#47E897}
    .fil264 {fill:#48E597}
    .fil265 {fill:#48E697}
    .fil262 {fill:#49E497}
    .fil263 {fill:#49E597}
    .fil260 {fill:#4AE297}
    .fil261 {fill:#4AE397}
    .fil258 {fill:#4BE197}
    .fil259 {fill:#4BE297}
    .fil256 {fill:#4CDF97}
    .fil257 {fill:#4CE097}
    .fil254 {fill:#4DDE97}
    .fil255 {fill:#4DDF97}
    .fil253 {fill:#4EDD97}
    .fil2 {fill:#A6A6A6}
    .fil206 {fill:#B21C42}
    .fil205 {fill:#B21D42}
    .fil203 {fill:#B31D41}
    .fil204 {fill:#B31D42}
    .fil202 {fill:#B41E41}
    .fil201 {fill:#B51E41}
    .fil200 {fill:#B51F41}
    .fil199 {fill:#B61F40}
    .fil198 {fill:#B72040}
    .fil197 {fill:#B8203F}
    .fil196 {fill:#B8213F}
    .fil194 {fill:#B9213E}
    .fil195 {fill:#B9213F}
    .fil193 {fill:#BA223E}
    .fil192 {fill:#BB223E}
    .fil191 {fill:#BB233E}
    .fil190 {fill:#BC233D}
    .fil189 {fill:#BD243D}
    .fil188 {fill:#BE243C}
    .fil187 {fill:#BE253C}
    .fil185 {fill:#BF253B}
    .fil186 {fill:#BF253C}
    .fil184 {fill:#C0263B}
    .fil183 {fill:#C1263B}
    .fil182 {fill:#C1273B}
    .fil181 {fill:#C2273A}
    .fil208 {fill:#C31F49}
    .fil209 {fill:#C31F4A}
    .fil180 {fill:#C3283A}
    .fil179 {fill:#C42839}
    .fil178 {fill:#C42939}
    .fil176 {fill:#C52938}
    .fil177 {fill:#C52939}
    .fil175 {fill:#C62A38}
    .fil174 {fill:#C72A38}
    .fil173 {fill:#C72B38}
    .fil172 {fill:#C82B37}
    .fil171 {fill:#C92C37}
    .fil170 {fill:#CA2C36}
    .fil169 {fill:#CA2D36}
    .fil167 {fill:#CB2D35}
    .fil168 {fill:#CB2D36}
    .fil166 {fill:#CB9F00}
    .fil124 {fill:#DE2354}
    .fil123 {fill:#DE2454}
    .fil122 {fill:#DF2453}
    .fil229 {fill:#DFAF00}
    .fil228 {fill:#DFB000}
    .fil227 {fill:#DFB100}
    .fil226 {fill:#DFB200}
    .fil225 {fill:#DFB300}
    .fil224 {fill:#DFB400}
    .fil223 {fill:#DFB500}
    .fil222 {fill:#DFB600}
    .fil221 {fill:#DFB700}
    .fil220 {fill:#DFB800}
    .fil219 {fill:#DFB900}
    .fil218 {fill:#DFBA00}
    .fil217 {fill:#DFBB00}
    .fil216 {fill:#DFBC00}
    .fil215 {fill:#DFBD00}
    .fil214 {fill:#DFBE00}
    .fil213 {fill:#DFBF00}
    .fil212 {fill:#DFC000}
    .fil211 {fill:#DFC100}
    .fil210 {fill:#DFC200}
    .fil121 {fill:#E02453}
    .fil120 {fill:#E02553}
    .fil118 {fill:#E12552}
    .fil119 {fill:#E12553}
    .fil117 {fill:#E12652}
    .fil116 {fill:#E22652}
    .fil115 {fill:#E32651}
    .fil114 {fill:#E32751}
    .fil113 {fill:#E42751}
    .fil112 {fill:#E42851}
    .fil111 {fill:#E52850}
    .fil110 {fill:#E62950}
    .fil109 {fill:#E7294F}
    .fil108 {fill:#E72A4F}
    .fil107 {fill:#E82A4F}
    .fil106 {fill:#E92B4E}
    .fil105 {fill:#EA2B4E}
    .fil104 {fill:#EA2C4E}
    .fil103 {fill:#EB2C4D}
    .fil102 {fill:#EC2D4D}
    .fil101 {fill:#ED2D4C}
    .fil100 {fill:#ED2E4C}
    .fil99 {fill:#EE2E4C}
    .fil98 {fill:#EF2F4B}
    .fil97 {fill:#F02F4B}
    .fil96 {fill:#F0304B}
    .fil95 {fill:#F1304A}
    .fil94 {fill:#F1314A}
    .fil93 {fill:#F2314A}
    .fil92 {fill:#F33149}
    .fil91 {fill:#F33249}
    .fil90 {fill:#F43249}
    .fil89 {fill:#F43349}
    .fil88 {fill:#F53348}
    .fil87 {fill:#F63348}
    .fil86 {fill:#F63448}
    .fil85 {fill:#F73447}
    .fil84 {fill:#F73547}
    .fil83 {fill:#F83547}
    .fil82 {fill:#F93546}
    .fil81 {fill:#F93646}
    .fil80 {fill:#FA3646}
    .fil79 {fill:#FA3746}
    .fil78 {fill:#FB3745}
    .fil77 {fill:#FC3845}
    .fil76 {fill:#FD3844}
    .fil75 {fill:#FD3944}
    .fil74 {fill:#FE3944}
    .fil73 {fill:#FF3A44}
    .fil72 {fill:#FFBA00}
    .fil71 {fill:#FFBB00}
    .fil70 {fill:#FFBC00}
    .fil69 {fill:#FFBD00}
    .fil68 {fill:#FFBE00}
    .fil67 {fill:#FFBF00}
    .fil66 {fill:#FFC000}
    .fil65 {fill:#FFC100}
    .fil64 {fill:#FFC200}
    .fil63 {fill:#FFC300}
    .fil62 {fill:#FFC400}
    .fil61 {fill:#FFC500}
    .fil60 {fill:#FFC600}
    .fil59 {fill:#FFC700}
    .fil58 {fill:#FFC800}
    .fil57 {fill:#FFC900}
    .fil56 {fill:#FFCA00}
    .fil55 {fill:#FFCB00}
    .fil54 {fill:#FFCC00}
    .fil53 {fill:#FFCD00}
    .fil52 {fill:#FFCE00}
    .fil51 {fill:#FFCF00}
    .fil50 {fill:#FFD000}
    .fil49 {fill:#FFD100}
    .fil48 {fill:#FFD200}
    .fil47 {fill:#FFD300}
    .fil46 {fill:#FFD400}
    .fil45 {fill:#FFD500}
    .fil44 {fill:#FFD600}
    .fil247 {fill:#FFD63F}
    .fil43 {fill:gold}
    .fil246 {fill:#FFD73F}
    .fil42 {fill:#FFD800}
    .fil245 {fill:#FFD83F}
    .fil41 {fill:#FFD900}
    .fil244 {fill:#FFD93F}
    .fil40 {fill:#FFDA00}
    .fil243 {fill:#FFDA3F}
    .fil39 {fill:#FFDB00}
    .fil242 {fill:#FFDB3F}
    .fil38 {fill:#FFDC00}
    .fil241 {fill:#FFDC3F}
    .fil37 {fill:#FFDD00}
    .fil240 {fill:#FFDD3F}
    .fil239 {fill:#FFDE3F}
    .fil238 {fill:#FFDF3F}
    .fil237 {fill:#FFE03F}
    .fil236 {fill:#FFE13F}
    .fil235 {fill:#FFE23F}
    .fil234 {fill:#FFE33F}
    .fil233 {fill:#FFE43F}
    .fil232 {fill:#FFE53F}
    .fil231 {fill:#FFE63F}
    .fil0 {fill:white}
   ]]>
  </style>
 </defs>
 <g id="Layer_x0020_1">
  <path class="fil0" d="M2153 11000l-2153 0 0 -833 2153 0 0 833zm-2014 -208l0 0c0,38 31,69 69,69l1736 0c38,0 69,-31 69,-69l0 -417 0 0c0,-38 -31,-69 -69,-69l-1736 0c-38,0 -69,31 -69,69l0 417z"/>
  <path class="fil1" d="M1944 10861l-1736 0c-38,0 -69,-31 -69,-69l0 -417c0,-38 31,-69 69,-69l1736 0c38,0 69,31 69,69l0 417c0,38 -31,69 -69,69z"/>
  <path class="fil2" d="M1944 10306l-1736 0c-38,0 -69,31 -69,69l0 417c0,38 31,69 69,69l1736 0c38,0 69,-31 69,-69l0 -417c0,-38 -31,-69 -69,-69zm0 11c32,0 58,26 58,58l0 417c0,32 -26,58 -58,58l-1736 0c-32,0 -58,-26 -58,-58l0 -417c0,-32 26,-58 58,-58l1736 0z"/>
  <path class="fil0" d="M797 10448c0,12 -3,21 -10,28 -8,8 -18,12 -31,12 -12,0 -22,-4 -31,-13 -8,-8 -13,-19 -13,-31 0,-12 4,-23 13,-31 8,-8 19,-13 31,-13 6,0 12,1 17,3 5,2 10,5 13,9l-7 7c-6,-7 -13,-10 -23,-10 -9,0 -16,3 -23,9 -6,6 -10,14 -10,24 0,10 3,18 10,24 6,6 14,9 23,9 9,0 17,-3 23,-9 4,-4 6,-10 7,-17l-30 0 0 -10 40 0c0,2 1,4 1,6z"/>
  <path class="fil0" d="M797 10448l-1 0c0,11 -3,20 -10,27l0 0 0 0c-8,8 -17,12 -30,12 -12,0 -22,-4 -30,-12 -8,-8 -12,-18 -12,-30 0,-12 4,-22 12,-30 8,-8 18,-12 30,-12 6,0 11,1 17,3 5,2 9,5 13,9l1 -1 -1 -1 -7 7 1 1 1 -1c-6,-7 -14,-10 -24,-10 -9,0 -17,3 -24,10 -7,6 -10,15 -10,25 0,10 3,19 10,25 7,6 15,10 24,10 10,0 18,-3 24,-10l0 0c4,-4 7,-10 7,-18l0 -2 -30 0 0 -7 39 0 0 -1 -1 0c0,2 1,4 1,6l1 0 1 0c0,-2 0,-4 -1,-7l0 -1 -43 0 0 11 0 1 32 0 0 -1 -1 0c-1,7 -3,12 -7,16l0 0c-6,6 -13,9 -22,9 -8,0 -16,-3 -22,-9 -6,-6 -9,-13 -9,-23 0,-10 3,-17 9,-23 6,-6 13,-9 22,-9 9,0 16,3 22,9l1 1 8 -8 1 -1 -1 -1c-3,-4 -8,-7 -14,-10 -6,-2 -12,-4 -18,-4 -12,0 -23,4 -32,13 -9,9 -13,19 -13,32 0,13 4,23 13,32 9,9 19,13 32,13 13,0 24,-4 32,-13l-1 -1 1 1c7,-7 11,-17 11,-29l-1 0z"/>
  <polygon class="fil0" points="861,10413 824,10413 824,10439 858,10439 858,10449 824,10449 824,10476 861,10476 861,10486 813,10486 813,10403 861,10403 "/>
  <polygon class="fil0" points="861,10413 861,10412 822,10412 822,10441 856,10441 856,10448 822,10448 822,10477 860,10477 860,10485 814,10485 814,10404 860,10404 860,10413 861,10413 861,10412 861,10413 863,10413 863,10403 863,10401 811,10401 811,10488 863,10488 863,10476 863,10474 825,10474 825,10451 859,10451 859,10439 859,10438 825,10438 825,10414 863,10414 863,10413 "/>
  <polygon class="fil0" points="907,10486 896,10486 896,10413 873,10413 873,10403 930,10403 930,10413 907,10413 "/>
  <polygon class="fil0" points="907,10486 907,10485 897,10485 897,10412 874,10412 874,10404 929,10404 929,10412 905,10412 905,10486 907,10486 907,10485 907,10486 908,10486 908,10414 931,10414 931,10403 931,10401 871,10401 871,10413 871,10414 895,10414 895,10488 907,10488 908,10488 908,10486 "/>
  <polygon class="fil0" points="971,10486 971,10403 982,10403 982,10486 "/>
  <polygon class="fil0" points="971,10486 973,10486 973,10404 981,10404 981,10485 971,10485 971,10486 973,10486 971,10486 971,10488 982,10488 983,10488 983,10401 971,10401 970,10401 970,10488 971,10488 "/>
  <polygon class="fil0" points="1030,10486 1019,10486 1019,10413 996,10413 996,10403 1053,10403 1053,10413 1030,10413 "/>
  <polygon class="fil0" points="1030,10486 1030,10485 1020,10485 1020,10412 997,10412 997,10404 1051,10404 1051,10412 1028,10412 1028,10486 1030,10486 1030,10485 1030,10486 1031,10486 1031,10414 1054,10414 1054,10403 1054,10401 994,10401 994,10413 994,10414 1017,10414 1017,10488 1030,10488 1031,10488 1031,10486 "/>
  <path class="fil0" d="M1108 10468c6,6 14,9 23,9 9,0 16,-3 23,-9 6,-6 9,-14 9,-24 0,-10 -3,-18 -9,-24 -6,-6 -14,-9 -23,-9 -9,0 -16,3 -23,9 -6,6 -9,14 -9,24 0,10 3,18 9,24zm53 7c-8,8 -18,13 -31,13 -12,0 -22,-4 -31,-13 -8,-8 -12,-19 -12,-31 0,-12 4,-22 12,-31 8,-8 18,-13 31,-13 12,0 22,4 31,13 8,8 12,19 12,31 0,12 -4,22 -12,31z"/>
  <path class="fil0" d="M1108 10468l-1 1c6,6 14,10 24,10 9,0 17,-3 24,-10 6,-7 10,-15 10,-25 0,-10 -3,-18 -10,-25l0 0c-6,-7 -14,-10 -24,-10 -9,0 -17,3 -24,10l0 0c-6,6 -10,15 -10,25 0,10 3,18 10,25l1 -1 1 -1c-6,-6 -9,-14 -9,-23 0,-9 3,-17 9,-23l0 0c6,-6 13,-9 22,-9 9,0 16,3 22,9l0 0c6,6 9,14 9,23 0,9 -3,17 -9,23 -6,6 -13,9 -22,9 -9,0 -16,-3 -22,-9l-1 1zm53 7l-1 -1c-8,8 -18,12 -30,12 -12,0 -22,-4 -30,-12l0 0 0 0c-8,-8 -12,-18 -12,-30 0,-12 4,-22 12,-30l0 0c8,-8 18,-12 30,-12 12,0 22,4 30,12 8,8 12,18 12,30 0,12 -4,22 -12,30l1 1 1 1c8,-9 13,-19 13,-32 0,-12 -4,-23 -13,-32 -8,-9 -19,-13 -32,-13 -13,0 -23,4 -32,13l0 0c-8,9 -13,19 -13,32 0,12 4,23 13,32l0 0 0 0c8,9 19,13 32,13 12,0 23,-4 32,-13l-1 -1z"/>
  <polygon class="fil0" points="1189,10486 1189,10403 1202,10403 1242,10468 1243,10468 1242,10452 1242,10403 1253,10403 1253,10486 1242,10486 1199,10418 1199,10418 1199,10434 1199,10486 "/>
  <polygon class="fil0" points="1189,10486 1190,10486 1190,10404 1201,10404 1241,10469 1243,10469 1244,10469 1243,10452 1243,10404 1251,10404 1251,10485 1242,10485 1200,10417 1199,10417 1197,10417 1198,10434 1198,10485 1189,10485 1189,10486 1190,10486 1189,10486 1189,10488 1199,10488 1201,10488 1201,10434 1200,10418 1199,10418 1199,10420 1199,10420 1199,10418 1198,10419 1241,10488 1253,10488 1254,10488 1254,10401 1242,10401 1241,10401 1241,10452 1241,10468 1243,10468 1243,10466 1242,10466 1242,10468 1243,10467 1202,10401 1189,10401 1187,10401 1187,10488 1189,10488 "/>
  <path class="fil0" d="M1624 10722l26 0 0 -174 -26 0 0 174zm233 -111l-30 75 -1 0 -31 -75 -28 0 46 105 -26 59 27 0 71 -164 -29 0zm-147 91c-9,0 -20,-4 -20,-15 0,-13 15,-19 27,-19 11,0 17,2 24,6 -2,16 -16,27 -31,27zm3 -95c-19,0 -38,8 -46,27l23 10c5,-10 14,-13 24,-13 13,0 27,8 27,22l0 2c-5,-3 -15,-7 -27,-7 -25,0 -50,14 -50,39 0,23 20,38 43,38 17,0 27,-8 33,-17l1 0 0 13 25 0 0 -67c0,-31 -23,-48 -53,-48zm-160 25l-37 0 0 -60 37 0c19,0 30,16 30,30 0,13 -11,30 -30,30zm-1 -84l-62 0 0 174 26 0 0 -66 36 0c29,0 57,-21 57,-54 0,-33 -28,-54 -57,-54zm-339 154c-18,0 -33,-15 -33,-36 0,-21 15,-36 33,-36 18,0 32,15 32,36 0,21 -14,36 -32,36zm30 -82l-1 0c-6,-7 -17,-13 -31,-13 -30,0 -57,26 -57,59 0,33 27,59 57,59 14,0 25,-6 31,-13l1 0 0 9c0,23 -12,35 -32,35 -16,0 -26,-11 -30,-21l-23 9c6,16 24,35 52,35 30,0 56,-18 56,-62l0 -106 -25 0 0 10zm43 101l26 0 0 -174 -26 0 0 174zm64 -57c-1,-23 18,-34 31,-34 10,0 19,5 22,13l-53 22zm81 -20c-5,-13 -20,-38 -51,-38 -30,0 -56,24 -56,59 0,33 25,59 59,59 27,0 43,-17 49,-26l-20 -13c-7,10 -16,16 -29,16 -13,0 -23,-6 -29,-18l79 -33 -3 -7zm-629 -19l0 25 60 0c-2,14 -6,24 -14,32 -9,9 -22,18 -46,18 -37,0 -66,-30 -66,-67 0,-37 29,-67 66,-67 20,0 34,8 45,18l18 -18c-15,-14 -35,-25 -63,-25 -51,0 -93,41 -93,92 0,51 43,92 93,92 27,0 48,-9 64,-26 17,-17 22,-40 22,-59 0,-6 0,-11 -1,-16l-84 0zm154 77c-18,0 -33,-15 -33,-36 0,-21 15,-36 33,-36 18,0 33,15 33,36 0,21 -15,36 -33,36zm0 -95c-33,0 -59,25 -59,59 0,34 27,59 59,59 33,0 59,-25 59,-59 0,-34 -27,-59 -59,-59zm129 95c-18,0 -33,-15 -33,-36 0,-21 15,-36 33,-36 18,0 33,15 33,36 0,21 -15,36 -33,36zm0 -95c-33,0 -59,25 -59,59 0,34 27,59 59,59 33,0 59,-25 59,-59 0,-34 -27,-59 -59,-59z"/>
  <polygon class="fil3" points="285,10411 457,10584 457,10583 285,10411 "/>
  <path class="fil3" d="M284 10412l172 172 1 -1 -172 -172c0,0 -1,1 -1,1z"/>
  <path class="fil3" d="M283 10413l172 172 1 -1 -172 -172c0,0 -1,1 -1,1z"/>
  <path class="fil4" d="M282 10414l172 172 1 -1 -172 -172c0,0 -1,1 -1,1z"/>
  <path class="fil4" d="M281 10416l172 172 1 -1 -172 -172c0,0 0,1 -1,1z"/>
  <path class="fil4" d="M281 10417l171 171 1 -1 -172 -172c0,0 0,1 -1,1z"/>
  <path class="fil5" d="M280 10418l171 171 1 -1 -171 -171c0,0 0,1 -1,1z"/>
  <path class="fil5" d="M280 10419l171 171 1 -1 -171 -171c0,0 0,1 -1,1z"/>
  <polygon class="fil5" points="279,10421 449,10591 450,10590 280,10419 "/>
  <path class="fil6" d="M279 10422l170 170 1 -1 -170 -170c0,0 0,1 0,1z"/>
  <path class="fil6" d="M278 10423l169 169 1 -1 -170 -170c0,0 0,1 0,1z"/>
  <path class="fil6" d="M278 10425l169 169 1 -1 -169 -169c0,0 0,1 0,2z"/>
  <path class="fil6" d="M278 10426l168 168 1 -1 -169 -169c0,1 0,1 0,2z"/>
  <path class="fil7" d="M278 10428l167 167 1 -1 -168 -168c0,1 0,1 0,2zm0 0l0 -1 0 1zm0 -1c0,0 0,0 0,0 0,0 0,0 0,0zm0 0c0,0 0,0 0,0 0,0 0,0 0,0z"/>
  <path class="fil7" d="M277 10430l166 166 1 -1 -167 -167c0,1 0,1 0,2zm0 0l0 0c0,0 0,0 0,0 0,0 0,0 0,0l0 0zm0 0c0,-1 0,-1 0,-2 0,1 0,1 0,2z"/>
  <path class="fil7" d="M277 10432l166 166 1 -1 -166 -166c0,1 0,1 0,2zm0 0l0 -2 0 2z"/>
  <path class="fil8" d="M277 10433l165 165 1 -1 -166 -166 0 2zm0 -2l0 0 0 0z"/>
  <polygon class="fil8" points="277,10435 441,10599 442,10598 277,10433 "/>
  <polygon class="fil8" points="277,10437 440,10600 441,10599 277,10435 "/>
  <polygon class="fil9" points="277,10439 439,10601 440,10600 277,10437 "/>
  <polygon class="fil9" points="277,10441 438,10602 439,10601 277,10439 "/>
  <polygon class="fil9" points="277,10443 438,10603 438,10602 277,10441 "/>
  <polygon class="fil10" points="277,10444 437,10604 438,10603 277,10443 "/>
  <polygon class="fil10" points="277,10446 436,10605 437,10604 277,10444 "/>
  <polygon class="fil10" points="277,10448 435,10605 436,10605 277,10446 "/>
  <polygon class="fil10" points="277,10450 434,10606 435,10605 277,10448 "/>
  <polygon class="fil11" points="277,10452 433,10607 434,10606 277,10450 "/>
  <polygon class="fil11" points="277,10453 432,10608 433,10607 277,10452 "/>
  <polygon class="fil11" points="277,10455 431,10609 432,10608 277,10453 "/>
  <polygon class="fil12" points="277,10457 430,10610 431,10609 277,10455 "/>
  <polygon class="fil12" points="277,10459 429,10611 430,10610 277,10457 "/>
  <polygon class="fil12" points="277,10461 428,10612 429,10611 277,10459 "/>
  <polygon class="fil13" points="277,10463 428,10613 428,10612 277,10461 "/>
  <polygon class="fil13" points="277,10464 427,10614 428,10613 277,10463 "/>
  <polygon class="fil13" points="277,10466 426,10615 427,10614 277,10464 "/>
  <polygon class="fil14" points="277,10468 425,10615 426,10615 277,10466 "/>
  <polygon class="fil14" points="277,10470 424,10616 425,10615 277,10468 "/>
  <polygon class="fil14" points="277,10472 423,10617 424,10616 277,10470 "/>
  <polygon class="fil15" points="277,10473 422,10618 423,10617 277,10472 "/>
  <polygon class="fil15" points="277,10475 421,10619 422,10618 277,10473 "/>
  <polygon class="fil15" points="277,10477 420,10620 421,10619 277,10475 "/>
  <polygon class="fil15" points="277,10479 419,10621 420,10620 277,10477 "/>
  <polygon class="fil16" points="277,10481 418,10622 419,10621 277,10479 "/>
  <polygon class="fil16" points="277,10483 418,10623 418,10622 277,10481 "/>
  <polygon class="fil16" points="277,10484 417,10624 418,10623 277,10483 "/>
  <polygon class="fil17" points="277,10486 416,10625 417,10624 277,10484 "/>
  <polygon class="fil17" points="277,10488 415,10625 416,10625 277,10486 "/>
  <polygon class="fil17" points="277,10490 414,10626 415,10625 277,10488 "/>
  <polygon class="fil18" points="277,10492 413,10627 414,10626 277,10490 "/>
  <polygon class="fil18" points="277,10494 412,10628 413,10627 277,10492 "/>
  <polygon class="fil18" points="277,10495 411,10629 412,10628 277,10494 "/>
  <polygon class="fil19" points="277,10497 410,10630 411,10629 277,10495 "/>
  <polygon class="fil19" points="277,10499 409,10631 410,10630 277,10497 "/>
  <polygon class="fil19" points="277,10501 408,10632 409,10631 277,10499 "/>
  <polygon class="fil19" points="277,10503 408,10633 408,10632 277,10501 "/>
  <polygon class="fil20" points="277,10504 407,10634 408,10633 277,10503 "/>
  <polygon class="fil20" points="277,10506 406,10635 407,10634 277,10504 "/>
  <polygon class="fil20" points="277,10508 405,10635 406,10635 277,10506 "/>
  <polygon class="fil20" points="277,10510 404,10636 405,10635 277,10508 "/>
  <polygon class="fil20" points="277,10512 403,10637 404,10636 277,10510 "/>
  <polygon class="fil21" points="277,10514 402,10638 403,10637 277,10512 "/>
  <polygon class="fil21" points="277,10515 401,10639 402,10638 277,10514 "/>
  <polygon class="fil21" points="277,10517 400,10640 401,10639 277,10515 "/>
  <polygon class="fil21" points="277,10519 399,10641 400,10640 277,10517 "/>
  <polygon class="fil22" points="277,10521 398,10642 399,10641 277,10519 "/>
  <polygon class="fil22" points="277,10523 398,10643 398,10642 277,10521 "/>
  <polygon class="fil22" points="277,10524 397,10644 398,10643 277,10523 "/>
  <polygon class="fil22" points="277,10526 396,10645 397,10644 277,10524 "/>
  <polygon class="fil22" points="277,10528 395,10645 396,10645 277,10526 "/>
  <polygon class="fil23" points="277,10530 394,10646 395,10645 277,10528 "/>
  <polygon class="fil23" points="277,10532 393,10647 394,10646 277,10530 "/>
  <polygon class="fil23" points="277,10534 392,10648 393,10647 277,10532 "/>
  <polygon class="fil23" points="277,10535 391,10649 392,10648 277,10534 "/>
  <polygon class="fil23" points="277,10537 390,10650 391,10649 277,10535 "/>
  <polygon class="fil24" points="277,10539 389,10651 390,10650 277,10537 "/>
  <polygon class="fil24" points="277,10541 388,10652 389,10651 277,10539 "/>
  <polygon class="fil24" points="277,10543 387,10653 388,10652 277,10541 "/>
  <polygon class="fil24" points="277,10545 387,10654 387,10653 277,10543 "/>
  <polygon class="fil24" points="277,10546 386,10655 387,10654 277,10545 "/>
  <polygon class="fil25" points="277,10548 385,10656 386,10655 277,10546 "/>
  <polygon class="fil25" points="277,10550 384,10656 385,10656 277,10548 "/>
  <polygon class="fil25" points="277,10552 383,10657 384,10656 277,10550 "/>
  <polygon class="fil25" points="277,10554 382,10658 383,10657 277,10552 "/>
  <polygon class="fil25" points="277,10555 381,10659 382,10658 277,10554 "/>
  <polygon class="fil26" points="277,10557 380,10660 381,10659 277,10555 "/>
  <polygon class="fil26" points="277,10559 379,10661 380,10660 277,10557 "/>
  <polygon class="fil26" points="277,10561 378,10662 379,10661 277,10559 "/>
  <polygon class="fil26" points="277,10563 377,10663 378,10662 277,10561 "/>
  <polygon class="fil26" points="277,10565 377,10664 377,10663 277,10563 "/>
  <polygon class="fil27" points="277,10566 376,10665 377,10664 277,10565 "/>
  <polygon class="fil27" points="277,10568 375,10666 376,10665 277,10566 "/>
  <polygon class="fil27" points="277,10570 374,10666 375,10666 277,10568 "/>
  <polygon class="fil27" points="277,10572 373,10667 374,10666 277,10570 "/>
  <polygon class="fil27" points="277,10574 372,10668 373,10667 277,10572 "/>
  <polygon class="fil28" points="277,10575 371,10669 372,10668 277,10574 "/>
  <polygon class="fil28" points="277,10577 370,10670 371,10669 277,10575 "/>
  <polygon class="fil28" points="277,10579 369,10671 370,10670 277,10577 "/>
  <polygon class="fil28" points="277,10581 368,10672 369,10671 277,10579 "/>
  <polygon class="fil28" points="277,10583 367,10673 368,10672 277,10581 "/>
  <polygon class="fil29" points="277,10585 367,10674 367,10673 277,10583 "/>
  <polygon class="fil29" points="277,10586 366,10675 367,10674 277,10585 "/>
  <polygon class="fil29" points="277,10588 365,10676 366,10675 277,10586 "/>
  <polygon class="fil29" points="277,10590 364,10676 365,10676 277,10588 "/>
  <polygon class="fil30" points="277,10592 363,10677 364,10676 277,10590 "/>
  <polygon class="fil30" points="277,10594 362,10678 363,10677 277,10592 "/>
  <polygon class="fil30" points="277,10596 361,10679 362,10678 277,10594 "/>
  <polygon class="fil30" points="277,10597 360,10680 361,10679 277,10596 "/>
  <polygon class="fil30" points="277,10599 359,10681 360,10680 277,10597 "/>
  <polygon class="fil31" points="277,10601 358,10682 359,10681 277,10599 "/>
  <polygon class="fil31" points="277,10603 357,10683 358,10682 277,10601 "/>
  <polygon class="fil31" points="277,10605 357,10684 357,10683 277,10603 "/>
  <polygon class="fil31" points="277,10606 356,10685 357,10684 277,10605 "/>
  <polygon class="fil31" points="277,10608 355,10686 356,10685 277,10606 "/>
  <polygon class="fil32" points="277,10610 354,10686 355,10686 277,10608 "/>
  <polygon class="fil32" points="277,10612 353,10687 354,10686 277,10610 "/>
  <polygon class="fil32" points="277,10614 352,10688 353,10687 277,10612 "/>
  <polygon class="fil32" points="277,10616 351,10689 352,10688 277,10614 "/>
  <polygon class="fil32" points="277,10617 350,10690 351,10689 277,10616 "/>
  <polygon class="fil33" points="277,10619 349,10691 350,10690 277,10617 "/>
  <polygon class="fil33" points="277,10621 348,10692 349,10691 277,10619 "/>
  <polygon class="fil33" points="277,10623 347,10693 348,10692 277,10621 "/>
  <polygon class="fil33" points="277,10625 347,10694 347,10693 277,10623 "/>
  <polygon class="fil33" points="277,10626 346,10695 347,10694 277,10625 "/>
  <polygon class="fil33" points="277,10628 345,10696 346,10695 277,10626 "/>
  <polygon class="fil33" points="277,10630 344,10696 345,10696 277,10628 "/>
  <polygon class="fil33" points="277,10632 343,10697 344,10696 277,10630 "/>
  <polygon class="fil33" points="277,10634 342,10698 343,10697 277,10632 "/>
  <polygon class="fil33" points="277,10636 341,10699 342,10698 277,10634 "/>
  <polygon class="fil33" points="277,10637 340,10700 341,10699 277,10636 "/>
  <polygon class="fil33" points="277,10639 339,10701 340,10700 277,10637 "/>
  <polygon class="fil33" points="277,10641 338,10702 339,10701 277,10639 "/>
  <polygon class="fil33" points="277,10643 337,10703 338,10702 277,10641 "/>
  <polygon class="fil33" points="277,10645 336,10704 337,10703 277,10643 "/>
  <polygon class="fil34" points="277,10646 336,10705 336,10704 277,10645 "/>
  <polygon class="fil34" points="277,10648 335,10706 336,10705 277,10646 "/>
  <polygon class="fil34" points="277,10650 334,10707 335,10706 277,10648 "/>
  <polygon class="fil34" points="277,10652 333,10707 334,10707 277,10650 "/>
  <polygon class="fil34" points="277,10654 332,10708 333,10707 277,10652 "/>
  <polygon class="fil34" points="277,10656 331,10709 332,10708 277,10654 "/>
  <polygon class="fil34" points="277,10657 330,10710 331,10709 277,10656 "/>
  <polygon class="fil34" points="277,10659 329,10711 330,10710 277,10657 "/>
  <polygon class="fil34" points="277,10661 328,10712 329,10711 277,10659 "/>
  <polygon class="fil34" points="277,10663 327,10713 328,10712 277,10661 "/>
  <polygon class="fil34" points="277,10665 326,10714 327,10713 277,10663 "/>
  <polygon class="fil34" points="277,10667 326,10715 326,10714 277,10665 "/>
  <polygon class="fil34" points="277,10668 325,10716 326,10715 277,10667 "/>
  <polygon class="fil34" points="277,10670 324,10717 325,10716 277,10668 "/>
  <polygon class="fil34" points="277,10672 323,10717 324,10717 277,10670 "/>
  <polygon class="fil34" points="277,10674 322,10718 323,10717 277,10672 "/>
  <polygon class="fil35" points="277,10676 321,10719 322,10718 277,10674 "/>
  <polygon class="fil35" points="277,10677 320,10720 321,10719 277,10676 "/>
  <polygon class="fil35" points="277,10679 319,10721 320,10720 277,10677 "/>
  <polygon class="fil35" points="277,10681 318,10722 319,10721 277,10679 "/>
  <polygon class="fil35" points="277,10683 317,10723 318,10722 277,10681 "/>
  <polygon class="fil35" points="277,10685 316,10724 317,10723 277,10683 "/>
  <polygon class="fil35" points="277,10687 316,10725 316,10724 277,10685 "/>
  <polygon class="fil35" points="277,10688 315,10726 316,10725 277,10687 "/>
  <polygon class="fil35" points="277,10690 314,10727 315,10726 277,10688 "/>
  <polygon class="fil35" points="277,10692 313,10727 314,10727 277,10690 "/>
  <polygon class="fil35" points="277,10694 312,10728 313,10727 277,10692 "/>
  <polygon class="fil35" points="277,10696 311,10729 312,10728 277,10694 "/>
  <polygon class="fil35" points="277,10697 310,10730 311,10729 277,10696 "/>
  <polygon class="fil35" points="277,10699 309,10731 310,10730 277,10697 "/>
  <polygon class="fil35" points="277,10701 308,10732 309,10731 277,10699 "/>
  <polygon class="fil36" points="277,10703 307,10733 308,10732 277,10701 "/>
  <polygon class="fil36" points="277,10705 306,10734 307,10733 277,10703 "/>
  <polygon class="fil36" points="277,10707 306,10735 306,10734 277,10705 "/>
  <polygon class="fil36" points="277,10708 305,10736 306,10735 277,10707 "/>
  <polygon class="fil36" points="277,10710 304,10737 305,10736 277,10708 "/>
  <polygon class="fil36" points="277,10712 303,10737 304,10737 277,10710 "/>
  <polygon class="fil36" points="277,10714 302,10738 303,10737 277,10712 "/>
  <polygon class="fil36" points="277,10716 301,10739 302,10738 277,10714 "/>
  <polygon class="fil36" points="277,10718 300,10740 301,10739 277,10716 "/>
  <polygon class="fil36" points="277,10719 299,10741 300,10740 277,10718 "/>
  <polygon class="fil36" points="277,10721 298,10742 299,10741 277,10719 "/>
  <polygon class="fil36" points="277,10723 297,10743 298,10742 277,10721 "/>
  <polygon class="fil36" points="277,10725 296,10744 297,10743 277,10723 "/>
  <polygon class="fil36" points="277,10727 296,10745 296,10744 277,10725 "/>
  <polygon class="fil36" points="277,10728 295,10746 296,10745 277,10727 "/>
  <path class="fil36" d="M295 10746l-17 -17 0 8 0 -2c0,9 2,15 6,20l1 1 10 -10z"/>
  <path class="fil37" d="M597 10579l0 8c1,-1 1,-3 1,-4 0,0 0,0 0,0 0,-1 -1,-3 -1,-4z"/>
  <path class="fil38" d="M596 10576l0 14c1,-1 1,-2 1,-3l0 -8c0,-1 -1,-2 -1,-3zm0 16c0,-1 1,-1 1,-2 0,1 -1,1 -1,2z"/>
  <path class="fil38" d="M594 10574l0 18c0,-1 1,-1 1,-2l0 -14c0,-1 -1,-1 -1,-2zm0 20c0,-1 1,-1 1,-2 0,1 -1,1 -1,2z"/>
  <path class="fil38" d="M593 10573l0 21c0,-1 1,-1 1,-2l0 -18c0,-1 -1,-1 -1,-2zm0 23l0 0c0,-1 1,-1 1,-2 0,1 -1,1 -1,2z"/>
  <path class="fil39" d="M592 10571l0 24c0,0 1,-1 1,-1l0 -21c0,0 -1,-1 -1,-1zm0 26l0 0c0,0 1,-1 1,-1l0 0c0,0 -1,1 -1,1z"/>
  <path class="fil39" d="M590 10570l0 26c0,0 1,-1 1,-1l0 -24c0,0 -1,-1 -1,-1zm0 28l0 0c0,0 1,-1 1,-1l0 0c0,0 -1,1 -1,1z"/>
  <path class="fil39" d="M589 10569l0 29c0,0 1,-1 1,-1l0 -26c0,0 -1,-1 -1,-1zm0 31l0 0c0,0 1,-1 1,-1l0 0c0,0 -1,1 -1,1z"/>
  <path class="fil40" d="M588 10568l0 31c0,0 1,-1 1,-1l0 -29c0,0 -1,-1 -1,-1zm0 33l0 0c0,0 1,-1 1,-1l0 0c0,0 -1,1 -1,1z"/>
  <path class="fil40" d="M586 10567l0 32 1 -1 0 -31 -1 -1zm0 34l0 0c0,0 1,-1 1,-1l0 0 -1 1z"/>
  <path class="fil40" d="M585 10566l0 34 1 -1 0 -32 -1 -1zm0 36l0 0 1 -1 0 0 -1 1z"/>
  <path class="fil41" d="M584 10566l0 36 1 -1 0 -34 -1 -1zm0 38l0 0 1 -1 0 0 -1 1z"/>
  <path class="fil41" d="M583 10565l0 37 1 -1 0 0 0 -36 0 0 -1 -1zm0 39l0 0 1 -1 0 0 0 0 0 0 -1 1z"/>
  <path class="fil41" d="M581 10564l0 39 1 -1 0 -37 -1 -1zm0 41l0 0 1 -1 0 0 -1 1z"/>
  <path class="fil42" d="M580 10563l0 40 1 -1 0 -39 -1 -1zm0 42l0 0 1 -1 0 0 -1 1z"/>
  <path class="fil42" d="M579 10563l0 42 1 -1 0 -40 -1 -1zm0 44l0 0 1 -1 0 0 -1 1z"/>
  <path class="fil42" d="M577 10562l0 43 1 -1 0 -42 -1 -1zm0 45l0 0 1 -1 0 0 -1 1z"/>
  <path class="fil43" d="M576 10561l0 45 1 -1 0 -43 -1 -1zm0 47l0 0 1 -1 0 0 -1 1z"/>
  <path class="fil43" d="M575 10560l0 46 1 -1 0 -45 -1 -1zm0 48l0 0 1 -1 0 0 -1 1z"/>
  <path class="fil43" d="M573 10560l0 48 1 -1 0 -46 -1 -1zm0 50l0 0 1 -1 0 0 -1 1z"/>
  <path class="fil44" d="M572 10559l0 49 1 -1 0 -48 -1 -1zm0 51l0 0 1 -1 0 0 -1 1z"/>
  <path class="fil44" d="M571 10558l0 51 1 -1 0 -49 -1 -1zm0 53l0 0 1 -1 0 0 -1 1z"/>
  <path class="fil44" d="M569 10557l0 52 1 -1 0 -51 -1 -1zm0 54l0 0 1 -1 0 0 -1 1z"/>
  <path class="fil45" d="M568 10557l0 54 1 -1 0 -52 -1 -1zm0 56l0 0 1 -1 0 0 -1 1z"/>
  <path class="fil45" d="M567 10556l0 55 1 -1 0 -54 -1 -1zm0 57l0 0 1 -1 0 0 -1 1z"/>
  <path class="fil45" d="M565 10555l0 57 1 -1 0 -55 -1 -1zm0 59l0 0 1 -1 0 0 -1 1z"/>
  <path class="fil46" d="M564 10554l0 58 1 -1 0 -57 -1 -1zm0 60l0 0 1 -1 0 0 -1 1z"/>
  <path class="fil46" d="M563 10554l0 60 1 -1 0 -58 -1 -1zm0 62l0 0 1 -1 0 0 -1 1z"/>
  <path class="fil46" d="M562 10553l0 61 1 -1 0 -60 -1 -1zm0 63l0 0 1 -1 0 0 -1 1z"/>
  <path class="fil47" d="M560 10552l0 63 1 -1 0 -61 -1 -1zm0 65l0 0 1 -1 0 0 -1 1z"/>
  <path class="fil47" d="M559 10551l0 64 1 -1 0 -63 -1 -1zm0 66l0 0 1 -1 0 0 -1 1z"/>
  <path class="fil47" d="M558 10551l0 66 1 -1 0 -64 -1 -1zm0 68l0 0 1 -1 0 0 -1 1z"/>
  <path class="fil48" d="M556 10550l0 67 1 -1 0 -66 -1 -1zm0 69l0 0 1 -1 0 0 -1 1z"/>
  <path class="fil48" d="M555 10549l0 68 1 -1 0 -67 -1 -1zm0 71l0 0 1 -1 0 0 -1 1z"/>
  <path class="fil48" d="M554 10548l0 70 1 -1 0 -68 -1 -1zm0 72l0 0 1 -1 0 0 -1 1z"/>
  <path class="fil49" d="M552 10548l0 71 1 -1 0 -70 -1 -1zm0 74l0 0 1 -1 0 0 -1 1z"/>
  <path class="fil49" d="M551 10547l0 73 1 -1 0 -71 -1 -1zm0 75l0 0 1 -1 0 0 -1 1z"/>
  <path class="fil49" d="M550 10546l0 74 1 -1 0 -73 -1 -1zm0 76l0 0 1 -1 0 0 -1 1z"/>
  <path class="fil50" d="M548 10545l0 76 1 -1 0 -74 -1 -1zm0 78l0 0 1 -1 0 0 -1 1z"/>
  <path class="fil50" d="M547 10545l0 77 1 -1 0 -76 -1 -1zm0 79l0 0 1 -1 0 0 -1 1z"/>
  <path class="fil50" d="M546 10544l0 79 1 -1 0 -77 -1 -1zm0 81l0 0 1 -1 0 0 -1 1z"/>
  <path class="fil51" d="M544 10543l0 80 1 -1 0 -79 -1 -1zm0 82l0 0 1 -1 0 0 -1 1z"/>
  <path class="fil51" d="M543 10542l0 82 1 -1 0 -80 -1 -1zm0 84l0 0 1 -1 0 0 -1 1z"/>
  <path class="fil51" d="M542 10542l0 83 1 -1 0 -82 -1 -1zm0 85l0 0 1 -1 0 0 -1 1z"/>
  <path class="fil52" d="M541 10541l0 85 1 -1 0 -83 -1 -1zm0 87l0 0 1 -1 0 0 -1 1z"/>
  <path class="fil52" d="M539 10540l0 86 1 -1 0 -85 -1 -1zm0 88l0 0 1 -1 0 0 -1 1z"/>
  <path class="fil52" d="M538 10539l0 88 1 -1 0 -86 -1 -1zm0 90l0 0 1 -1 0 0 -1 1z"/>
  <path class="fil53" d="M537 10539l0 89 1 -1 0 -88 -1 -1zm0 91l0 0 1 -1 0 0 -1 1z"/>
  <path class="fil53" d="M535 10538l0 91 1 -1 0 -89 -1 -1zm0 93l0 0 1 -1 0 0 -1 1z"/>
  <path class="fil53" d="M534 10537l0 92 1 -1 0 -91 -1 -1zm0 94l0 0 1 -1 0 0 -1 1z"/>
  <path class="fil54" d="M533 10536l0 94 1 -1 0 -92 -1 -1zm0 96l0 0 1 -1 0 0 -1 1z"/>
  <path class="fil54" d="M531 10536l0 95 1 -1 0 -94 -1 -1zm0 97l0 0 1 -1 0 0 -1 1z"/>
  <path class="fil54" d="M530 10535l0 97 1 -1 0 -95 -1 -1zm0 99l0 0 1 -1 0 0 -1 1z"/>
  <path class="fil55" d="M529 10534l0 98 1 -1 0 -97 -1 -1zm0 100l0 0 1 -1 0 0 -1 1z"/>
  <path class="fil55" d="M527 10533l0 100 1 -1 0 -98 -1 -1zm0 102l0 0 1 -1 0 0 -1 1z"/>
  <path class="fil55" d="M526 10533l0 101 1 -1 0 -100 -1 -1zm0 103l0 0 1 -1 0 0 -1 1z"/>
  <path class="fil56" d="M525 10532l0 103 1 -1 0 -101 -1 -1zm0 105l0 0 1 -1 0 0 -1 1z"/>
  <path class="fil56" d="M523 10531l0 104 1 -1 0 -103 -1 -1zm0 106l0 0 1 -1 0 0 -1 1z"/>
  <path class="fil56" d="M522 10530l0 106 1 -1 0 -104 -1 -1zm0 108l0 0 1 -1 0 0 -1 1z"/>
  <path class="fil57" d="M521 10530l0 107 1 -1 0 -106 -1 -1zm0 109l0 0 1 -1 0 0 -1 1z"/>
  <path class="fil57" d="M520 10529l0 109 1 -1 0 -107 -1 -1zm0 111l0 0 1 -1 0 0 -1 1z"/>
  <path class="fil57" d="M518 10528l0 110 1 -1 0 -109 -1 -1zm0 112l0 0 1 -1 0 0 -1 1z"/>
  <path class="fil58" d="M517 10527l0 112 1 -1 0 -110 -1 -1zm0 114l0 0 1 -1 0 0 -1 1z"/>
  <path class="fil58" d="M516 10527l0 113 1 -1 0 -112 -1 -1zm0 115l0 0 1 -1 0 0 -1 1z"/>
  <path class="fil58" d="M514 10526l0 0 0 115 1 -1 0 -113 -1 -1zm1 116l0 0 0 0 -1 1 1 -1 0 0z"/>
  <path class="fil59" d="M514 10526l0 0 -1 1 0 112 1 1 0 0 0 -115zm0 117l0 0 0 0 0 0z"/>
  <polygon class="fil59" points="512,10529 512,10638 513,10639 513,10527 "/>
  <polygon class="fil59" points="510,10530 510,10637 512,10638 512,10529 "/>
  <polygon class="fil60" points="509,10531 509,10635 510,10637 510,10530 "/>
  <polygon class="fil60" points="508,10533 508,10634 509,10635 509,10531 "/>
  <polygon class="fil60" points="506,10534 506,10633 508,10634 508,10533 "/>
  <polygon class="fil61" points="505,10535 505,10632 506,10633 506,10534 "/>
  <polygon class="fil61" points="504,10536 504,10630 505,10632 505,10535 "/>
  <polygon class="fil61" points="502,10538 502,10629 504,10630 504,10536 "/>
  <polygon class="fil62" points="501,10539 501,10628 502,10629 502,10538 "/>
  <polygon class="fil62" points="500,10540 500,10626 501,10628 501,10539 "/>
  <polygon class="fil62" points="499,10542 499,10625 500,10626 500,10540 "/>
  <polygon class="fil63" points="497,10543 497,10624 499,10625 499,10542 "/>
  <polygon class="fil63" points="496,10544 496,10622 497,10624 497,10543 "/>
  <polygon class="fil63" points="495,10546 495,10621 496,10622 496,10544 "/>
  <polygon class="fil64" points="493,10547 493,10620 495,10621 495,10546 "/>
  <polygon class="fil64" points="492,10548 492,10618 493,10620 493,10547 "/>
  <polygon class="fil64" points="491,10550 491,10617 492,10618 492,10548 "/>
  <polygon class="fil65" points="489,10551 489,10616 491,10617 491,10550 "/>
  <polygon class="fil65" points="488,10552 488,10614 489,10616 489,10551 "/>
  <polygon class="fil65" points="487,10554 487,10613 488,10614 488,10552 "/>
  <polygon class="fil66" points="485,10555 485,10612 487,10613 487,10554 "/>
  <polygon class="fil66" points="484,10556 484,10611 485,10612 485,10555 "/>
  <polygon class="fil66" points="483,10557 483,10609 484,10611 484,10556 "/>
  <polygon class="fil67" points="481,10559 481,10608 483,10609 483,10557 "/>
  <polygon class="fil67" points="480,10560 480,10607 481,10608 481,10559 "/>
  <polygon class="fil67" points="479,10561 479,10605 480,10607 480,10560 "/>
  <polygon class="fil68" points="478,10563 478,10604 479,10605 479,10561 "/>
  <polygon class="fil68" points="476,10564 476,10603 478,10604 478,10563 "/>
  <polygon class="fil68" points="475,10565 475,10601 476,10603 476,10564 "/>
  <polygon class="fil69" points="474,10567 474,10600 475,10601 475,10565 "/>
  <polygon class="fil69" points="472,10568 472,10599 474,10600 474,10567 "/>
  <polygon class="fil69" points="471,10569 471,10597 472,10599 472,10568 "/>
  <polygon class="fil70" points="470,10571 470,10596 471,10597 471,10569 "/>
  <polygon class="fil70" points="468,10572 468,10595 470,10596 470,10571 "/>
  <polygon class="fil70" points="467,10573 467,10593 468,10595 468,10572 "/>
  <polygon class="fil70" points="466,10575 466,10592 467,10593 467,10573 "/>
  <polygon class="fil71" points="464,10576 464,10591 466,10592 466,10575 "/>
  <polygon class="fil71" points="463,10577 463,10590 464,10591 464,10576 "/>
  <polygon class="fil71" points="462,10578 462,10588 463,10590 463,10577 "/>
  <polygon class="fil71" points="460,10580 460,10587 462,10588 462,10578 "/>
  <polygon class="fil72" points="459,10581 459,10586 460,10587 460,10580 "/>
  <polygon class="fil72" points="458,10582 458,10584 459,10586 459,10581 "/>
  <polygon class="fil72" points="458,10584 458,10582 457,10583 "/>
  <polygon class="fil73" points="454,10586 511,10643 514,10641 457,10583 "/>
  <polygon class="fil73" points="453,10587 509,10643 511,10643 454,10586 "/>
  <polygon class="fil74" points="452,10588 508,10644 509,10643 453,10587 "/>
  <polygon class="fil74" points="451,10590 506,10645 508,10644 452,10588 "/>
  <polygon class="fil74" points="449,10591 505,10646 506,10645 451,10590 "/>
  <polygon class="fil74" points="448,10592 503,10647 505,10646 449,10591 "/>
  <polygon class="fil75" points="447,10593 502,10648 503,10647 448,10592 "/>
  <polygon class="fil75" points="446,10595 500,10649 502,10648 447,10593 "/>
  <polygon class="fil76" points="444,10596 498,10650 500,10649 446,10595 "/>
  <polygon class="fil76" points="443,10597 497,10651 498,10650 444,10596 "/>
  <polygon class="fil77" points="442,10598 495,10652 497,10651 443,10597 "/>
  <polygon class="fil77" points="441,10599 494,10652 495,10652 442,10598 "/>
  <polygon class="fil77" points="440,10601 492,10653 494,10652 441,10599 "/>
  <polygon class="fil77" points="438,10602 491,10654 492,10653 440,10601 "/>
  <polygon class="fil78" points="437,10603 489,10655 491,10654 438,10602 "/>
  <polygon class="fil78" points="436,10604 487,10656 489,10655 437,10603 "/>
  <polygon class="fil78" points="435,10606 486,10657 487,10656 436,10604 "/>
  <polygon class="fil78" points="433,10607 484,10658 486,10657 435,10606 "/>
  <polygon class="fil78" points="432,10608 483,10659 484,10658 433,10607 "/>
  <polygon class="fil79" points="431,10609 481,10660 483,10659 432,10608 "/>
  <polygon class="fil80" points="430,10611 480,10660 481,10660 431,10609 "/>
  <polygon class="fil80" points="428,10612 478,10661 480,10660 430,10611 "/>
  <polygon class="fil80" points="427,10613 476,10662 478,10661 428,10612 "/>
  <polygon class="fil81" points="426,10614 475,10663 476,10662 427,10613 "/>
  <polygon class="fil81" points="425,10616 473,10664 475,10663 426,10614 "/>
  <polygon class="fil81" points="424,10617 472,10665 473,10664 425,10616 "/>
  <polygon class="fil82" points="422,10618 470,10666 472,10665 424,10617 "/>
  <polygon class="fil83" points="421,10619 469,10667 470,10666 422,10618 "/>
  <polygon class="fil83" points="420,10620 467,10668 469,10667 421,10619 "/>
  <polygon class="fil83" points="419,10622 465,10669 467,10668 420,10620 "/>
  <polygon class="fil83" points="417,10623 464,10669 465,10669 419,10622 "/>
  <polygon class="fil84" points="416,10624 462,10670 464,10669 417,10623 "/>
  <polygon class="fil84" points="415,10625 461,10671 462,10670 416,10624 "/>
  <polygon class="fil85" points="414,10627 459,10672 461,10671 415,10625 "/>
  <polygon class="fil85" points="412,10628 458,10673 459,10672 414,10627 "/>
  <polygon class="fil85" points="411,10629 456,10674 458,10673 412,10628 "/>
  <polygon class="fil86" points="410,10630 454,10675 456,10674 411,10629 "/>
  <polygon class="fil86" points="409,10632 453,10676 454,10675 410,10630 "/>
  <polygon class="fil86" points="407,10633 451,10677 453,10676 409,10632 "/>
  <polygon class="fil87" points="406,10634 450,10677 451,10677 407,10633 "/>
  <polygon class="fil88" points="405,10635 448,10678 450,10677 406,10634 "/>
  <polygon class="fil88" points="404,10637 446,10679 448,10678 405,10635 "/>
  <polygon class="fil88" points="403,10638 445,10680 446,10679 404,10637 "/>
  <polygon class="fil88" points="401,10639 443,10681 445,10680 403,10638 "/>
  <polygon class="fil89" points="400,10640 442,10682 443,10681 401,10639 "/>
  <polygon class="fil90" points="399,10641 440,10683 442,10682 400,10640 "/>
  <polygon class="fil90" points="398,10643 439,10684 440,10683 399,10641 "/>
  <polygon class="fil90" points="396,10644 437,10685 439,10684 398,10643 "/>
  <polygon class="fil91" points="395,10645 435,10686 437,10685 396,10644 "/>
  <polygon class="fil91" points="394,10646 434,10686 435,10686 395,10645 "/>
  <polygon class="fil91" points="393,10648 432,10687 434,10686 394,10646 "/>
  <polygon class="fil92" points="391,10649 431,10688 432,10687 393,10648 "/>
  <polygon class="fil92" points="390,10650 429,10689 431,10688 391,10649 "/>
  <polygon class="fil93" points="389,10651 428,10690 429,10689 390,10650 "/>
  <polygon class="fil93" points="388,10653 426,10691 428,10690 389,10651 "/>
  <polygon class="fil93" points="386,10654 424,10692 426,10691 388,10653 "/>
  <polygon class="fil93" points="385,10655 423,10693 424,10692 386,10654 "/>
  <polygon class="fil94" points="384,10656 421,10694 423,10693 385,10655 "/>
  <polygon class="fil95" points="383,10658 420,10694 421,10694 384,10656 "/>
  <polygon class="fil95" points="382,10659 418,10695 420,10694 383,10658 "/>
  <polygon class="fil95" points="380,10660 417,10696 418,10695 382,10659 "/>
  <polygon class="fil96" points="379,10661 415,10697 417,10696 380,10660 "/>
  <polygon class="fil96" points="378,10662 413,10698 415,10697 379,10661 "/>
  <polygon class="fil96" points="377,10664 412,10699 413,10698 378,10662 "/>
  <polygon class="fil97" points="375,10665 410,10700 412,10699 377,10664 "/>
  <polygon class="fil97" points="374,10666 409,10701 410,10700 375,10665 "/>
  <polygon class="fil98" points="373,10667 407,10702 409,10701 374,10666 "/>
  <polygon class="fil98" points="372,10669 406,10703 407,10702 373,10667 "/>
  <polygon class="fil98" points="370,10670 404,10703 406,10703 372,10669 "/>
  <polygon class="fil98" points="369,10671 402,10704 404,10703 370,10670 "/>
  <polygon class="fil99" points="368,10672 401,10705 402,10704 369,10671 "/>
  <polygon class="fil99" points="367,10674 399,10706 401,10705 368,10672 "/>
  <polygon class="fil99" points="365,10675 398,10707 399,10706 367,10674 "/>
  <polygon class="fil99" points="364,10676 396,10708 398,10707 365,10675 "/>
  <polygon class="fil100" points="363,10677 395,10709 396,10708 364,10676 "/>
  <polygon class="fil100" points="362,10678 393,10710 395,10709 363,10677 "/>
  <polygon class="fil101" points="361,10680 391,10711 393,10710 362,10678 "/>
  <polygon class="fil101" points="359,10681 390,10711 391,10711 361,10680 "/>
  <polygon class="fil102" points="358,10682 388,10712 390,10711 359,10681 "/>
  <polygon class="fil102" points="357,10683 387,10713 388,10712 358,10682 "/>
  <polygon class="fil102" points="356,10685 385,10714 387,10713 357,10683 "/>
  <polygon class="fil102" points="354,10686 383,10715 385,10714 356,10685 "/>
  <polygon class="fil102" points="353,10687 382,10716 383,10715 354,10686 "/>
  <polygon class="fil103" points="352,10688 380,10717 382,10716 353,10687 "/>
  <polygon class="fil103" points="351,10690 379,10718 380,10717 352,10688 "/>
  <polygon class="fil103" points="349,10691 377,10719 379,10718 351,10690 "/>
  <polygon class="fil103" points="348,10692 376,10720 377,10719 349,10691 "/>
  <polygon class="fil104" points="347,10693 374,10720 376,10720 348,10692 "/>
  <polygon class="fil104" points="346,10695 372,10721 374,10720 347,10693 "/>
  <polygon class="fil105" points="344,10696 371,10722 372,10721 346,10695 "/>
  <polygon class="fil105" points="343,10697 369,10723 371,10722 344,10696 "/>
  <polygon class="fil106" points="342,10698 368,10724 369,10723 343,10697 "/>
  <polygon class="fil106" points="341,10699 366,10725 368,10724 342,10698 "/>
  <polygon class="fil106" points="340,10701 365,10726 366,10725 341,10699 "/>
  <polygon class="fil106" points="338,10702 363,10727 365,10726 340,10701 "/>
  <polygon class="fil107" points="337,10703 361,10728 363,10727 338,10702 "/>
  <polygon class="fil107" points="336,10704 360,10728 361,10728 337,10703 "/>
  <polygon class="fil107" points="335,10706 358,10729 360,10728 336,10704 "/>
  <polygon class="fil107" points="333,10707 357,10730 358,10729 335,10706 "/>
  <polygon class="fil107" points="332,10708 355,10731 357,10730 333,10707 "/>
  <polygon class="fil108" points="331,10709 354,10732 355,10731 332,10708 "/>
  <polygon class="fil109" points="330,10711 352,10733 354,10732 331,10709 "/>
  <polygon class="fil109" points="328,10712 350,10734 352,10733 330,10711 "/>
  <polygon class="fil109" points="327,10713 349,10735 350,10734 328,10712 "/>
  <polygon class="fil110" points="326,10714 347,10736 349,10735 327,10713 "/>
  <polygon class="fil110" points="325,10716 346,10737 347,10736 326,10714 "/>
  <polygon class="fil110" points="323,10717 344,10737 346,10737 325,10716 "/>
  <polygon class="fil110" points="322,10718 343,10738 344,10737 323,10717 "/>
  <polygon class="fil111" points="321,10719 341,10739 343,10738 322,10718 "/>
  <polygon class="fil111" points="320,10720 339,10740 341,10739 321,10719 "/>
  <polygon class="fil111" points="319,10722 338,10741 339,10740 320,10720 "/>
  <polygon class="fil111" points="317,10723 336,10742 338,10741 319,10722 "/>
  <polygon class="fil112" points="316,10724 335,10743 336,10742 317,10723 "/>
  <polygon class="fil112" points="315,10725 333,10744 335,10743 316,10724 "/>
  <polygon class="fil113" points="314,10727 332,10745 333,10744 315,10725 "/>
  <polygon class="fil113" points="312,10728 330,10745 332,10745 314,10727 "/>
  <polygon class="fil113" points="311,10729 328,10746 330,10745 312,10728 "/>
  <polygon class="fil114" points="310,10730 327,10747 328,10746 311,10729 "/>
  <polygon class="fil114" points="309,10732 325,10748 327,10747 310,10730 "/>
  <polygon class="fil114" points="307,10733 324,10749 325,10748 309,10732 "/>
  <polygon class="fil115" points="306,10734 322,10750 324,10749 307,10733 "/>
  <polygon class="fil116" points="305,10735 321,10751 322,10750 306,10734 "/>
  <polygon class="fil116" points="304,10737 319,10752 321,10751 305,10735 "/>
  <polygon class="fil116" points="303,10738 317,10753 319,10752 304,10737 "/>
  <polygon class="fil116" points="301,10739 316,10754 317,10753 303,10738 "/>
  <polygon class="fil117" points="300,10740 314,10754 316,10754 301,10739 "/>
  <polygon class="fil118" points="299,10741 313,10755 313,10755 314,10754 300,10740 "/>
  <path class="fil118" d="M298 10743l13 13c1,0 1,-1 2,-1l-14 -14 -1 1z"/>
  <path class="fil118" d="M296 10744l13 13c1,0 1,-1 2,-1l-13 -13 -1 1z"/>
  <path class="fil119" d="M295 10745l13 13c1,0 1,0 2,-1l-13 -13 -1 1z"/>
  <path class="fil120" d="M294 10746l12 12c1,0 1,0 2,-1l-13 -13 -1 1z"/>
  <path class="fil120" d="M293 10748l11 11c1,0 1,0 2,-1l-12 -12 -1 1z"/>
  <path class="fil120" d="M291 10749l11 11c1,0 1,0 2,0l-11 -11 -1 1z"/>
  <path class="fil121" d="M290 10750l10 10c1,0 1,0 2,0l-11 -11 -1 1z"/>
  <path class="fil122" d="M289 10751l9 9c1,0 2,0 2,0l-10 -10 -1 1z"/>
  <path class="fil122" d="M288 10753l7 7c1,0 1,0 2,0l0 0 -9 -9 -1 1zm9 9l0 0 0 0c0,0 1,0 1,0 0,0 -1,0 -1,0z"/>
  <path class="fil122" d="M286 10754l5 5c1,0 2,0 3,1l-7 -7 -1 1zm11 8c-1,0 -2,0 -3,0 1,0 2,0 3,0z"/>
  <path class="fil122" d="M285 10755l2 2c1,1 3,1 4,2l-5 -5 -1 1zm6 6l0 0c1,0 2,1 3,1 -1,0 -2,0 -3,-1z"/>
  <path class="fil123" d="M286 10759l0 0c1,1 3,2 5,2l0 0c-2,-1 -3,-1 -5,-2zm1 -1l-2 -2 0 0 0 0 0 0c1,1 2,1 3,2z"/>
  <path class="fil124" d="M286 10759l0 0c-1,0 -1,-1 -2,-1l0 0c0,0 1,1 2,1zm-2 -1c0,0 -1,-1 -1,-1l1 1z"/>
  <path class="fil125" d="M285 10412l3 -3c-1,1 -2,1 -3,2l0 1z"/>
  <path class="fil125" d="M286 10412l4 -4c-1,0 -1,1 -2,1l-3 3 1 1z"/>
  <path class="fil126" d="M286 10413l5 -5c-1,0 -1,0 -2,1l-4 4 1 1z"/>
  <path class="fil126" d="M287 10413l6 -6c0,0 -1,0 -1,0l-5 5 1 1z"/>
  <path class="fil126" d="M288 10414l7 -7c0,0 -1,0 -1,0l-6 6 1 1z"/>
  <path class="fil127" d="M288 10415l8 -8c0,0 -1,0 -1,0l-7 7 1 1zm10 -10l0 0 -1 0c0,0 0,0 0,0 0,0 0,0 0,0l1 0zm-1 0l0 0 0 0z"/>
  <path class="fil128" d="M289 10415l8 -8c0,0 -1,0 -1,0l-8 8 1 1zm10 -10l0 0 -1 0 0 0 1 0z"/>
  <path class="fil128" d="M289 10416l9 -9 -1 0 0 0 -8 8 1 1zm10 -11l0 0 1 0 -1 0z"/>
  <path class="fil128" d="M290 10416l9 -9 -1 0 -9 9 1 1zm11 -11l0 0 -1 0 1 0z"/>
  <path class="fil129" d="M290 10417l10 -10 -1 0 -9 9 1 1zm12 -12l0 0 -1 0 0 0 1 0z"/>
  <path class="fil129" d="M291 10417l10 -10 -1 0 -10 10 1 1zm11 -12l0 0 1 0 -1 0z"/>
  <path class="fil130" d="M291 10418l11 -11 -1 0 -10 10 1 1zm12 -12l0 0 -1 0 1 0z"/>
  <path class="fil130" d="M292 10418l11 -11 -1 0 -11 11 1 1zm13 -13l0 0 -1 0 0 0 1 0z"/>
  <path class="fil131" d="M293 10419l11 -11 -1 0 -11 11 1 1zm13 -13l0 0 -1 0 0 0 1 0z"/>
  <path class="fil131" d="M293 10419l12 -12 -1 0 -11 11 1 1zm13 -13l0 0 -1 0 0 0 1 0z"/>
  <path class="fil131" d="M294 10420l12 -12 -1 0 -12 12 1 1zm13 -13l0 0 -1 0 0 0 1 0z"/>
  <path class="fil132" d="M294 10421l12 -12 -1 0 -12 12 1 1zm14 -14l0 0 -1 0 0 0 1 0z"/>
  <path class="fil132" d="M295 10421l12 -12 -1 0 -12 12 1 1zm14 -14l0 0 -1 0 0 0 1 0z"/>
  <path class="fil132" d="M295 10422l13 -13 -1 0 -12 12 1 1zm14 -14l0 0 -1 0 0 0 1 0z"/>
  <path class="fil132" d="M296 10422l13 -13 -1 0 -13 13 1 1zm14 -14l0 0 -1 0 0 0 1 0z"/>
  <path class="fil133" d="M296 10423l13 -13 -1 0 -13 13 1 1zm14 -14l0 0 -1 0 0 0 1 0z"/>
  <path class="fil133" d="M297 10423l13 -13 -1 0 -13 13 1 1zm15 -15l0 0 -1 0 0 0 1 0z"/>
  <path class="fil134" d="M297 10424l13 -13 -1 0 -13 13 1 1zm15 -15l0 0 -1 0 0 0 1 0z"/>
  <path class="fil135" d="M298 10424l14 -14 -1 0 -13 13 1 1zm15 -15l0 0 0 0 0 0 0 0 0 0 0 0z"/>
  <path class="fil135" d="M299 10425l14 -14 -1 0 -14 14 1 1zm15 -15l0 0 -1 0 0 0 1 0z"/>
  <path class="fil135" d="M299 10426l14 -14 0 0 0 0 -14 14 1 1zm15 -15l0 0 -1 0 0 0 1 0z"/>
  <path class="fil135" d="M300 10426l14 -14 -1 0 -14 14 1 1zm15 -15l0 0 -1 0 0 0 1 0z"/>
  <path class="fil136" d="M300 10427l14 -14 -1 0 -14 14 1 1zm16 -16l0 0 -1 0 0 0 1 0z"/>
  <path class="fil136" d="M301 10427l14 -14 -1 0 -14 14 1 1zm16 -16l0 0 -1 0 0 0 1 0z"/>
  <path class="fil136" d="M301 10428l15 -15 -1 0 -14 14 1 1zm16 -16l0 0 -1 0 0 0 1 0z"/>
  <path class="fil137" d="M302 10428l15 -15 -1 0 -15 15 1 1zm16 -16l0 0 -1 0 0 0 1 0z"/>
  <path class="fil137" d="M302 10429l15 -15 -1 0 -15 15 1 1zm16 -16l0 0 -1 0 0 0 1 0z"/>
  <path class="fil137" d="M303 10429l15 -15 -1 0 -15 15 1 1zm16 -16l0 0 -1 0 0 0 1 0z"/>
  <path class="fil138" d="M304 10430l15 -15 -1 0 -15 15 1 1zm16 -16l0 0 -1 0 0 0 1 0z"/>
  <path class="fil138" d="M304 10431l15 -15 -1 0 -15 15 1 1zm17 -17l0 0 -1 0 0 0 1 0z"/>
  <path class="fil138" d="M305 10431l15 -15 -1 0 -15 15 1 1zm17 -17l0 0 -1 0 0 0 1 0z"/>
  <path class="fil138" d="M305 10432l16 -16 -1 0 -15 15 1 1zm17 -17l0 0 -1 0 0 0 1 0z"/>
  <path class="fil139" d="M306 10432l16 -16 -1 0 -16 16 1 1zm17 -17l0 0 -1 0 0 0 1 0z"/>
  <path class="fil140" d="M306 10433l16 -16 -1 0 -16 16 1 1zm17 -17l0 0 -1 0 0 0 1 0z"/>
  <path class="fil140" d="M307 10433l16 -16 -1 0 -16 16 1 1zm17 -17l0 0 -1 0 0 0 1 0z"/>
  <path class="fil141" d="M307 10434l16 -16 -1 0 -16 16 1 1zm17 -17l0 0 -1 0 0 0 1 0z"/>
  <path class="fil141" d="M308 10434l16 -16 -1 0 -16 16 1 1zm18 -18l0 0 -1 0 0 0 1 0z"/>
  <path class="fil141" d="M308 10435l17 -17 -1 0 -16 16 1 1zm18 -18l0 0 -1 0 0 0 1 0z"/>
  <path class="fil141" d="M309 10435l17 -17 -1 0 -17 17 1 1zm18 -18l0 0 -1 0 0 0 1 0z"/>
  <path class="fil142" d="M310 10436l17 -17 -1 0 -17 17 1 1zm18 -18l0 0 -1 0 0 0 1 0z"/>
  <path class="fil142" d="M310 10437l17 -17 -1 0 -17 17 1 1zm18 -18l0 0 -1 0 0 0 1 0z"/>
  <path class="fil142" d="M311 10437l17 -17 -1 0 -17 17 1 1zm18 -18l0 0 -1 0 0 0 1 0z"/>
  <path class="fil143" d="M311 10438l17 -17 -1 0 -17 17 1 1zm19 -19l0 0 -1 0 0 0 1 0z"/>
  <path class="fil143" d="M312 10438l17 -17 -1 0 -17 17 1 1zm19 -19l0 0 -1 0 0 0 1 0z"/>
  <path class="fil144" d="M312 10439l18 -18 -1 0 -17 17 1 1zm19 -19l0 0 -1 0 0 0 1 0z"/>
  <path class="fil144" d="M313 10439l18 -18 -1 0 -18 18 1 1zm19 -19l0 0 -1 0 0 0 1 0z"/>
  <path class="fil145" d="M313 10440l18 -18 -1 0 -18 18 1 1zm19 -19l0 0 -1 0 0 0 1 0z"/>
  <path class="fil145" d="M314 10440l18 -18 -1 0 -18 18 1 1zm19 -19l0 0 -1 0 0 0 1 0z"/>
  <path class="fil145" d="M315 10441l18 -18 -1 0 -18 18 1 1zm19 -19l0 0 -1 0 0 0 1 0z"/>
  <path class="fil146" d="M315 10442l18 -18 -1 0 -18 18 1 1zm20 -20l0 0 -1 0 0 0 1 0z"/>
  <path class="fil147" d="M316 10442l18 -18 -1 0 -18 18 1 1zm20 -20l0 0 -1 0 0 0 1 0z"/>
  <path class="fil147" d="M316 10443l19 -19 -1 0 -18 18 1 1zm20 -20l0 0 -1 0 0 0 1 0z"/>
  <path class="fil147" d="M317 10443l19 -19 -1 0 -19 19 1 1zm20 -20l0 0 -1 0 0 0 1 0z"/>
  <path class="fil148" d="M317 10444l19 -19 -1 0 -19 19 1 1zm20 -20l0 0 -1 0 0 0 1 0z"/>
  <path class="fil148" d="M318 10444l19 -19 -1 0 -19 19 1 1zm20 -20l0 0 -1 0 0 0 1 0z"/>
  <path class="fil149" d="M318 10445l19 -19 -1 0 -19 19 1 1zm21 -21l0 0 -1 0 0 0 1 0z"/>
  <path class="fil150" d="M319 10445l19 -19 -1 0 -19 19 1 1zm21 -21l0 0 -1 0 0 0 1 0z"/>
  <path class="fil150" d="M320 10446l20 -20 -1 0 -19 19 1 1zm21 -21l0 0 -1 0 0 0 1 0z"/>
  <path class="fil150" d="M320 10447l20 -20 -1 0 -20 20 1 1zm21 -21l0 0 -1 0 0 0 1 0z"/>
  <path class="fil150" d="M321 10447l20 -20 -1 0 -20 20 1 1zm21 -21l0 0 -1 0 0 0 1 0z"/>
  <path class="fil151" d="M321 10448l20 -20 -1 0 -20 20 1 1zm21 -21l0 0 -1 0 0 0 1 0z"/>
  <path class="fil152" d="M322 10448l20 -20 -1 0 -20 20 1 1zm21 -21l0 0 -1 0 0 0 1 0z"/>
  <path class="fil152" d="M322 10449l20 -20 -1 0 -20 20 1 1zm22 -22l0 0 -1 0 0 0 1 0z"/>
  <path class="fil153" d="M323 10449l20 -20 -1 0 -20 20 1 1zm22 -22l0 0 -1 0 0 0 1 0z"/>
  <path class="fil153" d="M323 10450l21 -21 -1 0 -20 20 1 1zm22 -22l0 0 -1 0 0 0 1 0z"/>
  <path class="fil153" d="M324 10450l21 -21 -1 0 -21 21 1 1zm22 -22l0 0 -1 0 0 0 1 0z"/>
  <path class="fil153" d="M324 10451l21 -21 -1 0 -21 21 1 1zm22 -22l0 0 -1 0 0 0 1 0z"/>
  <path class="fil154" d="M325 10451l21 -21 -1 0 -21 21 1 1zm22 -22l0 0 -1 0 0 0 1 0z"/>
  <path class="fil154" d="M326 10452l21 -21 -1 0 -21 21 1 1zm22 -23l0 0 -1 0 0 0 1 0z"/>
  <path class="fil154" d="M326 10453l21 -21 -1 0 -21 21 1 1zm23 -23l0 0 -1 0 0 0 1 0z"/>
  <path class="fil154" d="M327 10453l22 -22 -1 0 -21 21 1 1zm23 -23l0 0 -1 0 0 0 1 0z"/>
  <path class="fil154" d="M327 10454l22 -22 -1 0 -22 22 1 1zm23 -23l0 0 -1 0 0 0 1 0z"/>
  <path class="fil155" d="M328 10454l22 -22 -1 0 -22 22 1 1zm23 -23l0 0 -1 0 0 0 1 0z"/>
  <path class="fil155" d="M328 10455l22 -22 -1 0 -22 22 1 1zm23 -23l0 0 -1 0 0 0 1 0z"/>
  <path class="fil155" d="M329 10455l22 -22 -1 0 -22 22 1 1zm23 -23l0 0 -1 0 0 0 1 0z"/>
  <path class="fil156" d="M329 10456l22 -22 -1 0 -22 22 1 1zm24 -24l0 0 -1 0 0 0 1 0z"/>
  <path class="fil156" d="M330 10456l22 -22 -1 0 -22 22 1 1zm24 -24l0 0 -1 0 0 0 1 0z"/>
  <path class="fil156" d="M331 10457l23 -23 -1 0 -22 22 1 1zm24 -24l0 0 -1 0 0 0 1 0z"/>
  <path class="fil157" d="M331 10458l23 -23 -1 0 -23 23 1 1zm24 -24l0 0 -1 0 0 0 1 0z"/>
  <path class="fil157" d="M332 10458l23 -23 -1 0 -23 23 1 1zm24 -24l0 0 -1 0 0 0 1 0z"/>
  <path class="fil157" d="M332 10459l23 -23 -1 0 -23 23 1 1zm24 -24l0 0 -1 0 0 0 1 0z"/>
  <path class="fil157" d="M333 10459l23 -23 -1 0 -23 23 1 1zm24 -24l0 0 -1 0 0 0 1 0z"/>
  <path class="fil157" d="M333 10460l23 -23 -1 0 -23 23 1 1zm25 -25l0 0 -1 0 0 0 1 0z"/>
  <path class="fil157" d="M334 10460l23 -23 -1 0 -23 23 1 1zm25 -25l0 0 -1 0 0 0 1 0z"/>
  <path class="fil158" d="M334 10461l24 -24 -1 0 -23 23 1 1zm25 -25l0 0 -1 0 0 0 1 0z"/>
  <path class="fil158" d="M335 10461l24 -24 -1 0 -24 24 1 1zm25 -25l0 0 -1 0 0 0 1 0z"/>
  <path class="fil158" d="M336 10462l24 -24 -1 0 -24 24 1 1zm25 -25l0 0 -1 0 0 0 1 0z"/>
  <path class="fil158" d="M336 10462l24 -24 -1 0 -24 24 1 1zm25 -25l0 0 -1 0 0 0 1 0z"/>
  <path class="fil158" d="M337 10463l24 -24 -1 0 -24 24 1 1zm26 -26l0 0 -1 0 0 0 1 0z"/>
  <path class="fil159" d="M337 10464l24 -24 -1 0 -24 24 1 1zm26 -26l0 0 -1 0 0 0 1 0z"/>
  <path class="fil159" d="M338 10464l25 -25 -1 0 -24 24 1 1zm26 -26l0 0 -1 0 0 0 1 0z"/>
  <path class="fil159" d="M338 10465l25 -25 -1 0 -25 25 1 1zm26 -26l0 0 -1 0 0 0 1 0z"/>
  <path class="fil160" d="M339 10465l25 -25 -1 0 -25 25 1 1zm26 -26l0 0 -1 0 0 0 1 0z"/>
  <path class="fil160" d="M339 10466l25 -25 -1 0 -25 25 1 1zm26 -26l0 0 -1 0 0 0 1 0z"/>
  <path class="fil160" d="M340 10466l25 -25 -1 0 -25 25 1 1zm26 -26l0 0 -1 0 0 0 1 0z"/>
  <path class="fil161" d="M340 10467l25 -25 -1 0 -25 25 1 1zm27 -27l0 0 -1 0 0 0 1 0z"/>
  <path class="fil161" d="M341 10467l25 -25 -1 0 -25 25 1 1zm27 -27l0 0 -1 0 0 0 1 0z"/>
  <path class="fil161" d="M342 10468l26 -26 -1 0 -25 25 1 1zm27 -27l0 0 -1 0 0 0 1 0z"/>
  <path class="fil161" d="M342 10469l26 -26 -1 0 -26 26 1 1zm27 -27l0 0 -1 0 0 0 1 0z"/>
  <path class="fil161" d="M343 10469l26 -26 -1 0 -26 26 1 1zm27 -27l0 0 -1 0 0 0 1 0z"/>
  <path class="fil161" d="M343 10470l26 -26 -1 0 -26 26 1 1zm27 -27l0 0 -1 0 0 0 1 0z"/>
  <path class="fil162" d="M344 10470l26 -26 -1 0 -26 26 1 1zm28 -28l0 0 -1 0 0 0 1 0z"/>
  <path class="fil162" d="M344 10471l26 -26 -1 0 -26 26 1 1zm28 -28l0 0 -1 0 0 0 1 0z"/>
  <path class="fil162" d="M345 10471l27 -27 -1 0 -26 26 1 1zm28 -28l0 0 -1 0 0 0 1 0z"/>
  <path class="fil162" d="M345 10472l27 -27 -1 0 -27 27 1 1zm28 -28l0 0 -1 0 0 0 1 0z"/>
  <path class="fil162" d="M346 10472l27 -27 -1 0 -27 27 1 1zm28 -28l0 0 -1 0 0 0 1 0z"/>
  <path class="fil163" d="M347 10473l27 -27 -1 0 -27 27 1 1zm28 -28l0 0 -1 0 0 0 1 0z"/>
  <path class="fil163" d="M347 10474l27 -27 -1 0 -27 27 1 1zm28 -28l0 0 -1 0 0 0 1 0z"/>
  <path class="fil163" d="M348 10474l27 -27 -1 0 -27 27 1 1zm29 -29l0 0 -1 0 0 0 1 0z"/>
  <path class="fil164" d="M348 10475l27 -27 -1 0 -27 27 1 1zm29 -29l0 0 -1 0 0 0 1 0z"/>
  <path class="fil164" d="M349 10475l28 -28 -1 0 -27 27 1 1zm29 -29l0 0 -1 0 0 0 1 0z"/>
  <path class="fil164" d="M349 10476l28 -28 -1 0 -28 28 1 1zm29 -29l0 0 -1 0 0 0 1 0z"/>
  <path class="fil165" d="M350 10476l28 -28 -1 0 -28 28 1 1zm29 -29l0 0 -1 0 0 0 1 0z"/>
  <path class="fil165" d="M350 10477l28 -28 -1 0 -28 28 1 1zm29 -29l0 0 -1 0 0 0 1 0z"/>
  <path class="fil165" d="M351 10477l28 -28 -1 0 -28 28 1 1zm29 -29l0 0 -1 0 0 0 1 0z"/>
  <path class="fil165" d="M352 10478l28 -28 -1 0 -28 28 1 1zm30 -30l0 0 -1 0 0 0 1 0z"/>
  <path class="fil165" d="M352 10478l28 -28 -1 0 -28 28 1 1zm30 -30l0 0 -1 0 0 0 1 0z"/>
  <path class="fil165" d="M382 10449l0 0 134 76 0 0 -134 -76zm-1 1l-28 28 105 105 0 0 57 -57 -134 -76z"/>
  <path class="fil1" d="M298 10762c4,0 9,-2 14,-5l202 -115 0 0 -202 115c-5,3 -10,4 -14,5zm-14 -4l0 0c0,0 0,0 0,0l0 0zm-1 -1l0 0 0 0c0,0 0,0 0,0z"/>
  <polygon class="fil166" points="514,10643 515,10642 "/>
  <polygon class="fil166" points="514,10643 514,10643 514,10643 "/>
  <polygon class="fil167" points="511,10643 512,10644 514,10643 516,10642 514,10641 "/>
  <polygon class="fil167" points="509,10643 511,10645 512,10644 511,10643 "/>
  <polygon class="fil168" points="508,10644 509,10646 511,10645 509,10643 "/>
  <polygon class="fil168" points="506,10645 508,10647 509,10646 508,10644 "/>
  <polygon class="fil168" points="505,10646 506,10647 508,10647 506,10645 "/>
  <polygon class="fil168" points="503,10647 504,10648 506,10647 505,10646 "/>
  <polygon class="fil168" points="502,10648 503,10649 504,10648 503,10647 "/>
  <polygon class="fil169" points="500,10649 501,10650 503,10649 502,10648 "/>
  <polygon class="fil169" points="498,10650 500,10651 501,10650 500,10649 "/>
  <polygon class="fil170" points="497,10651 498,10652 500,10651 498,10650 "/>
  <polygon class="fil170" points="495,10652 497,10653 498,10652 497,10651 "/>
  <polygon class="fil170" points="494,10652 495,10654 497,10653 495,10652 "/>
  <polygon class="fil171" points="492,10653 493,10655 495,10654 494,10652 "/>
  <polygon class="fil171" points="491,10654 492,10655 493,10655 492,10653 "/>
  <polygon class="fil171" points="489,10655 490,10656 492,10655 491,10654 "/>
  <polygon class="fil171" points="487,10656 489,10657 490,10656 489,10655 "/>
  <polygon class="fil171" points="486,10657 487,10658 489,10657 487,10656 "/>
  <polygon class="fil172" points="484,10658 486,10659 487,10658 486,10657 "/>
  <polygon class="fil172" points="483,10659 484,10660 486,10659 484,10658 "/>
  <polygon class="fil172" points="481,10660 482,10661 484,10660 483,10659 "/>
  <polygon class="fil172" points="480,10660 481,10662 482,10661 481,10660 "/>
  <polygon class="fil172" points="478,10661 479,10663 481,10662 480,10660 "/>
  <polygon class="fil172" points="476,10662 478,10664 479,10663 478,10661 "/>
  <polygon class="fil173" points="475,10663 476,10664 478,10664 476,10662 "/>
  <polygon class="fil173" points="473,10664 475,10665 476,10664 475,10663 "/>
  <polygon class="fil174" points="472,10665 473,10666 475,10665 473,10664 "/>
  <polygon class="fil174" points="470,10666 471,10667 473,10666 472,10665 "/>
  <polygon class="fil174" points="469,10667 470,10668 471,10667 470,10666 "/>
  <polygon class="fil175" points="467,10668 468,10669 470,10668 469,10667 "/>
  <polygon class="fil175" points="465,10669 467,10670 468,10669 467,10668 "/>
  <polygon class="fil175" points="464,10669 465,10671 467,10670 465,10669 "/>
  <polygon class="fil175" points="462,10670 464,10672 465,10671 464,10669 "/>
  <polygon class="fil175" points="461,10671 462,10672 464,10672 462,10670 "/>
  <polygon class="fil176" points="459,10672 460,10673 462,10672 461,10671 "/>
  <polygon class="fil177" points="458,10673 459,10674 460,10673 459,10672 "/>
  <polygon class="fil177" points="456,10674 457,10675 459,10674 458,10673 "/>
  <polygon class="fil177" points="454,10675 456,10676 457,10675 456,10674 "/>
  <polygon class="fil177" points="453,10676 454,10677 456,10676 454,10675 "/>
  <polygon class="fil177" points="451,10677 453,10678 454,10677 453,10676 "/>
  <polygon class="fil178" points="450,10677 451,10679 453,10678 451,10677 "/>
  <polygon class="fil178" points="448,10678 449,10680 451,10679 450,10677 "/>
  <polygon class="fil179" points="446,10679 448,10681 449,10680 448,10678 "/>
  <polygon class="fil179" points="445,10680 446,10681 448,10681 446,10679 "/>
  <polygon class="fil179" points="443,10681 445,10682 446,10681 445,10680 "/>
  <polygon class="fil180" points="442,10682 443,10683 445,10682 443,10681 "/>
  <polygon class="fil180" points="440,10683 441,10684 443,10683 442,10682 "/>
  <polygon class="fil180" points="439,10684 440,10685 441,10684 440,10683 "/>
  <polygon class="fil180" points="437,10685 438,10686 440,10685 439,10684 "/>
  <polygon class="fil180" points="435,10686 437,10687 438,10686 437,10685 "/>
  <polygon class="fil181" points="434,10686 435,10688 437,10687 435,10686 "/>
  <polygon class="fil181" points="432,10687 434,10689 435,10688 434,10686 "/>
  <polygon class="fil181" points="431,10688 432,10689 434,10689 432,10687 "/>
  <polygon class="fil181" points="429,10689 430,10690 432,10689 431,10688 "/>
  <polygon class="fil181" points="428,10690 429,10691 430,10690 429,10689 "/>
  <polygon class="fil181" points="426,10691 427,10692 429,10691 428,10690 "/>
  <polygon class="fil182" points="424,10692 426,10693 427,10692 426,10691 "/>
  <polygon class="fil182" points="423,10693 424,10694 426,10693 424,10692 "/>
  <polygon class="fil183" points="421,10694 423,10695 424,10694 423,10693 "/>
  <polygon class="fil183" points="420,10694 421,10696 423,10695 421,10694 "/>
  <polygon class="fil183" points="418,10695 419,10697 421,10696 420,10694 "/>
  <polygon class="fil184" points="417,10696 418,10698 419,10697 418,10695 "/>
  <polygon class="fil184" points="415,10697 416,10698 418,10698 417,10696 "/>
  <polygon class="fil184" points="413,10698 415,10699 416,10698 415,10697 "/>
  <polygon class="fil184" points="412,10699 413,10700 415,10699 413,10698 "/>
  <polygon class="fil184" points="410,10700 412,10701 413,10700 412,10699 "/>
  <polygon class="fil185" points="409,10701 410,10702 412,10701 410,10700 "/>
  <polygon class="fil186" points="407,10702 408,10703 410,10702 409,10701 "/>
  <polygon class="fil186" points="406,10703 407,10704 408,10703 407,10702 "/>
  <polygon class="fil186" points="404,10703 405,10705 407,10704 406,10703 "/>
  <polygon class="fil186" points="402,10704 404,10706 405,10705 404,10703 "/>
  <polygon class="fil186" points="401,10705 402,10706 404,10706 402,10704 "/>
  <polygon class="fil187" points="399,10706 401,10707 402,10706 401,10705 "/>
  <polygon class="fil187" points="398,10707 399,10708 401,10707 399,10706 "/>
  <polygon class="fil188" points="396,10708 397,10709 399,10708 398,10707 "/>
  <polygon class="fil188" points="395,10709 396,10710 397,10709 396,10708 "/>
  <polygon class="fil188" points="393,10710 394,10711 396,10710 395,10709 "/>
  <polygon class="fil189" points="391,10711 393,10712 394,10711 393,10710 "/>
  <polygon class="fil189" points="390,10711 391,10713 393,10712 391,10711 "/>
  <polygon class="fil189" points="388,10712 390,10714 391,10713 390,10711 "/>
  <polygon class="fil189" points="387,10713 388,10715 390,10714 388,10712 "/>
  <polygon class="fil189" points="385,10714 386,10715 388,10715 387,10713 "/>
  <polygon class="fil190" points="383,10715 385,10716 386,10715 385,10714 "/>
  <polygon class="fil190" points="382,10716 383,10717 385,10716 383,10715 "/>
  <polygon class="fil190" points="380,10717 382,10718 383,10717 382,10716 "/>
  <polygon class="fil190" points="379,10718 380,10719 382,10718 380,10717 "/>
  <polygon class="fil190" points="377,10719 378,10720 380,10719 379,10718 "/>
  <polygon class="fil190" points="376,10720 377,10721 378,10720 377,10719 "/>
  <polygon class="fil191" points="374,10720 375,10722 377,10721 376,10720 "/>
  <polygon class="fil191" points="372,10721 374,10723 375,10722 374,10720 "/>
  <polygon class="fil192" points="371,10722 372,10723 374,10723 372,10721 "/>
  <polygon class="fil192" points="369,10723 371,10724 372,10723 371,10722 "/>
  <polygon class="fil192" points="368,10724 369,10725 371,10724 369,10723 "/>
  <polygon class="fil193" points="366,10725 367,10726 369,10725 368,10724 "/>
  <polygon class="fil193" points="365,10726 366,10727 367,10726 366,10725 "/>
  <polygon class="fil193" points="363,10727 364,10728 366,10727 365,10726 "/>
  <polygon class="fil193" points="361,10728 363,10729 364,10728 363,10727 "/>
  <polygon class="fil193" points="360,10728 361,10730 363,10729 361,10728 "/>
  <polygon class="fil194" points="358,10729 360,10731 361,10730 360,10728 "/>
  <polygon class="fil195" points="357,10730 358,10732 360,10731 358,10729 "/>
  <polygon class="fil195" points="355,10731 356,10732 358,10732 357,10730 "/>
  <polygon class="fil195" points="354,10732 355,10733 356,10732 355,10731 "/>
  <polygon class="fil195" points="352,10733 353,10734 355,10733 354,10732 "/>
  <polygon class="fil195" points="350,10734 352,10735 353,10734 352,10733 "/>
  <polygon class="fil196" points="349,10735 350,10736 352,10735 350,10734 "/>
  <polygon class="fil196" points="347,10736 349,10737 350,10736 349,10735 "/>
  <polygon class="fil197" points="346,10737 347,10738 349,10737 347,10736 "/>
  <polygon class="fil197" points="344,10737 345,10739 347,10738 346,10737 "/>
  <polygon class="fil197" points="343,10738 344,10740 345,10739 344,10737 "/>
  <polygon class="fil198" points="341,10739 342,10740 344,10740 343,10738 "/>
  <polygon class="fil198" points="339,10740 341,10741 342,10740 341,10739 "/>
  <polygon class="fil198" points="338,10741 339,10742 341,10741 339,10740 "/>
  <polygon class="fil198" points="336,10742 338,10743 339,10742 338,10741 "/>
  <polygon class="fil198" points="335,10743 336,10744 338,10743 336,10742 "/>
  <polygon class="fil199" points="333,10744 334,10745 336,10744 335,10743 "/>
  <polygon class="fil199" points="332,10745 333,10746 334,10745 333,10744 "/>
  <polygon class="fil199" points="330,10745 331,10747 333,10746 332,10745 "/>
  <polygon class="fil199" points="328,10746 330,10748 331,10747 330,10745 "/>
  <polygon class="fil199" points="327,10747 328,10749 330,10748 328,10746 "/>
  <polygon class="fil199" points="325,10748 327,10749 328,10749 327,10747 "/>
  <polygon class="fil200" points="324,10749 325,10750 327,10749 325,10748 "/>
  <polygon class="fil200" points="322,10750 323,10751 325,10750 324,10749 "/>
  <polygon class="fil201" points="321,10751 322,10752 323,10751 322,10750 "/>
  <polygon class="fil201" points="319,10752 320,10753 322,10752 321,10751 "/>
  <polygon class="fil201" points="317,10753 319,10754 320,10753 319,10752 "/>
  <polygon class="fil202" points="316,10754 317,10755 319,10754 317,10753 "/>
  <polygon class="fil202" points="314,10754 316,10756 317,10755 316,10754 "/>
  <polygon class="fil202" points="313,10755 314,10757 316,10756 314,10754 313,10755 "/>
  <polygon class="fil202" points="311,10756 312,10757 313,10757 314,10757 313,10755 "/>
  <path class="fil202" d="M309 10757l1 1 2 -1 -1 -1c-1,0 -1,1 -2,1z"/>
  <path class="fil203" d="M308 10758l1 1c1,0 1,-1 2,-1l-1 -1c-1,0 -1,1 -2,1z"/>
  <path class="fil204" d="M306 10758l1 1c1,0 1,0 2,-1l-1 -1c-1,0 -1,0 -2,1z"/>
  <path class="fil204" d="M304 10759l2 2c1,0 1,0 2,-1l-1 -1c-1,0 -1,0 -2,1z"/>
  <path class="fil204" d="M302 10759l2 2c1,0 1,0 2,-1l-2 -2c-1,0 -1,0 -2,0z"/>
  <path class="fil204" d="M300 10760l2 2c1,0 1,0 2,0l-2 -2c-1,0 -1,0 -2,0z"/>
  <path class="fil204" d="M298 10760l2 2c1,0 1,0 2,0l-2 -2c-1,0 -2,0 -2,0z"/>
  <path class="fil205" d="M295 10760l2 2 0 0c0,0 1,0 1,0l1 0 -2 -2 0 0c-1,0 -1,0 -2,0z"/>
  <path class="fil205" d="M292 10759l3 3c1,0 2,0 3,0l-2 -2c-1,0 -2,0 -3,-1z"/>
  <path class="fil206" d="M288 10757l4 4c1,0 2,1 3,1l-3 -3c-2,0 -3,-1 -4,-2z"/>
  <path class="fil206" d="M284 10756l2 2c1,1 3,2 5,2l-4 -4c-1,-1 -2,-1 -3,-2l-1 1z"/>
  <path class="fil206" d="M286 10759l-2 -2 0 0c0,0 0,0 0,0l1 1c0,0 0,0 0,0l0 0c0,0 1,1 2,1z"/>
  <path class="fil1" d="M284 10756c-4,-4 -6,-11 -6,-20l0 0c0,9 2,15 6,20l0 0c0,0 0,0 0,0l0 0z"/>
  <path class="fil207" d="M284 10756l0 0c-4,-4 -6,-11 -6,-20l0 -2c0,9 2,15 6,19l1 1 -1 1z"/>
  <polygon class="fil208" points="284,10756 285,10755 285,10755 "/>
  <path class="fil209" d="M284 10756c0,0 0,0 0,0l0 0 0 0 0 0z"/>
  <path class="fil1" d="M596 10591c1,-2 2,-5 2,-7 0,0 0,0 0,0 0,2 -1,5 -2,7z"/>
  <path class="fil210" d="M597 10588l0 2c1,-2 1,-4 1,-6 0,1 -1,3 -1,4z"/>
  <path class="fil210" d="M596 10590l0 2c0,-1 1,-1 1,-2 0,0 0,-1 1,-1l0 -2c0,1 -1,2 -1,3z"/>
  <path class="fil210" d="M594 10592l0 2c0,-1 1,-1 1,-2l0 -2c0,1 -1,1 -1,2z"/>
  <path class="fil211" d="M593 10594l0 2c0,-1 1,-1 1,-2l0 -2c0,1 -1,1 -1,2z"/>
  <path class="fil211" d="M592 10595l0 2c0,0 1,-1 1,-1l0 -2c0,0 -1,1 -1,1z"/>
  <path class="fil211" d="M590 10596l0 2c0,0 1,-1 1,-1l0 -2c0,0 -1,1 -1,1z"/>
  <path class="fil212" d="M589 10598l0 2c0,0 1,-1 1,-1l0 -2c0,0 -1,1 -1,1z"/>
  <path class="fil212" d="M588 10599l0 2c0,0 1,-1 1,-1l0 -2c0,0 -1,1 -1,1z"/>
  <polygon class="fil212" points="586,10600 586,10602 588,10601 588,10599 "/>
  <polygon class="fil213" points="585,10600 585,10602 586,10602 586,10600 "/>
  <polygon class="fil213" points="584,10601 584,10603 585,10602 585,10600 "/>
  <polygon class="fil213" points="583,10602 583,10604 584,10603 584,10603 584,10601 584,10601 "/>
  <polygon class="fil213" points="581,10603 581,10605 583,10604 583,10602 "/>
  <polygon class="fil214" points="580,10603 580,10605 581,10605 581,10603 "/>
  <polygon class="fil214" points="579,10604 579,10606 580,10605 580,10603 "/>
  <polygon class="fil214" points="577,10605 577,10607 579,10606 579,10604 "/>
  <polygon class="fil215" points="576,10606 576,10608 577,10607 577,10605 "/>
  <polygon class="fil215" points="575,10606 575,10608 576,10608 576,10606 "/>
  <polygon class="fil215" points="573,10607 573,10609 575,10608 575,10606 "/>
  <polygon class="fil215" points="572,10608 572,10610 573,10609 573,10607 "/>
  <polygon class="fil216" points="571,10609 571,10611 572,10610 572,10608 "/>
  <polygon class="fil216" points="569,10609 569,10611 571,10611 571,10609 "/>
  <polygon class="fil216" points="568,10610 568,10612 569,10611 569,10609 "/>
  <polygon class="fil217" points="567,10611 567,10613 568,10612 568,10610 "/>
  <polygon class="fil217" points="565,10612 565,10614 567,10613 567,10611 "/>
  <polygon class="fil217" points="564,10612 564,10614 565,10614 565,10612 "/>
  <polygon class="fil218" points="563,10613 563,10615 564,10614 564,10612 "/>
  <polygon class="fil218" points="562,10614 562,10616 563,10615 563,10613 "/>
  <polygon class="fil218" points="560,10615 560,10617 562,10616 562,10614 "/>
  <polygon class="fil218" points="559,10615 559,10617 560,10617 560,10615 "/>
  <polygon class="fil219" points="558,10616 558,10618 559,10617 559,10615 "/>
  <polygon class="fil219" points="556,10617 556,10619 558,10618 558,10616 "/>
  <polygon class="fil219" points="555,10618 555,10620 556,10619 556,10617 "/>
  <polygon class="fil220" points="554,10618 554,10620 555,10620 555,10618 "/>
  <polygon class="fil220" points="552,10619 552,10621 554,10620 554,10618 "/>
  <polygon class="fil220" points="551,10620 551,10622 552,10621 552,10619 "/>
  <polygon class="fil221" points="550,10621 550,10623 551,10622 551,10620 "/>
  <polygon class="fil221" points="548,10621 548,10623 550,10623 550,10621 "/>
  <polygon class="fil221" points="547,10622 547,10624 548,10623 548,10621 "/>
  <polygon class="fil221" points="546,10623 546,10625 547,10624 547,10622 "/>
  <polygon class="fil222" points="544,10624 544,10626 546,10625 546,10623 "/>
  <polygon class="fil222" points="543,10624 543,10626 544,10626 544,10624 "/>
  <polygon class="fil222" points="542,10625 542,10627 543,10626 543,10624 "/>
  <polygon class="fil223" points="541,10626 541,10628 542,10627 542,10625 "/>
  <polygon class="fil223" points="539,10627 539,10629 541,10628 541,10626 "/>
  <polygon class="fil223" points="538,10627 538,10629 539,10629 539,10627 "/>
  <polygon class="fil223" points="537,10628 537,10630 538,10629 538,10627 "/>
  <polygon class="fil224" points="535,10629 535,10631 537,10630 537,10628 "/>
  <polygon class="fil224" points="534,10630 534,10632 535,10631 535,10629 "/>
  <polygon class="fil224" points="533,10630 533,10632 534,10632 534,10630 "/>
  <polygon class="fil225" points="531,10631 531,10633 533,10632 533,10630 "/>
  <polygon class="fil225" points="530,10632 530,10634 531,10633 531,10631 "/>
  <polygon class="fil225" points="529,10633 529,10635 530,10634 530,10632 "/>
  <polygon class="fil226" points="527,10633 527,10635 529,10635 529,10633 "/>
  <polygon class="fil226" points="526,10634 526,10636 527,10635 527,10633 "/>
  <polygon class="fil226" points="525,10635 525,10637 526,10636 526,10634 "/>
  <polygon class="fil226" points="523,10635 523,10638 525,10637 525,10635 "/>
  <polygon class="fil227" points="522,10636 522,10638 523,10638 523,10635 "/>
  <polygon class="fil227" points="521,10637 521,10639 522,10638 522,10636 "/>
  <polygon class="fil227" points="520,10638 520,10640 521,10639 521,10637 "/>
  <polygon class="fil228" points="518,10638 518,10641 520,10640 520,10638 "/>
  <polygon class="fil228" points="517,10639 517,10641 518,10641 518,10638 "/>
  <polygon class="fil228" points="516,10640 516,10642 517,10641 517,10639 "/>
  <polygon class="fil229" points="514,10641 514,10641 516,10642 516,10642 516,10642 516,10640 "/>
  <polygon class="fil229" points="514,10641 514,10641 514,10641 "/>
  <path class="fil230" d="M598 10583c0,0 0,0 0,0 0,-7 -5,-15 -15,-20l-68 -39 0 0 0 0 68 39c10,6 15,13 15,20z"/>
  <path class="fil231" d="M597 10577l0 2c1,1 1,3 1,4 0,-2 0,-4 -1,-6z"/>
  <path class="fil232" d="M596 10575l0 2c1,1 1,2 1,3l0 -2c0,-1 -1,-2 -1,-3z"/>
  <path class="fil232" d="M594 10573l0 2c0,1 1,1 1,2l0 -2c0,-1 -1,-1 -1,-2z"/>
  <path class="fil232" d="M593 10571l0 2c0,1 1,1 1,2l0 -2c0,-1 -1,-1 -1,-2z"/>
  <path class="fil232" d="M592 10569l0 2c0,0 1,1 1,1l0 -2c0,0 -1,-1 -1,-1z"/>
  <path class="fil233" d="M590 10568l0 2c0,0 1,1 1,1l0 -2c0,0 -1,-1 -1,-1z"/>
  <path class="fil233" d="M589 10567l0 2c0,0 1,1 1,1l0 -2c0,0 -1,-1 -1,-1z"/>
  <path class="fil233" d="M588 10566l0 2c0,0 1,1 1,1l0 -2 -1 -1z"/>
  <path class="fil233" d="M586 10565l0 2 1 1 0 -2c0,0 -1,-1 -1,-1z"/>
  <polygon class="fil234" points="585,10564 585,10566 586,10567 586,10565 "/>
  <polygon class="fil234" points="584,10563 584,10566 585,10566 585,10564 "/>
  <polygon class="fil234" points="583,10563 583,10565 584,10565 584,10566 584,10563 584,10563 "/>
  <polygon class="fil234" points="581,10562 581,10564 583,10565 583,10563 "/>
  <polygon class="fil235" points="580,10561 580,10563 581,10564 581,10562 "/>
  <polygon class="fil235" points="579,10561 579,10563 580,10563 580,10561 "/>
  <polygon class="fil235" points="577,10560 577,10562 579,10563 579,10561 "/>
  <polygon class="fil235" points="576,10559 576,10561 577,10562 577,10560 "/>
  <polygon class="fil236" points="575,10558 575,10560 576,10561 576,10559 "/>
  <polygon class="fil236" points="573,10558 573,10560 575,10560 575,10558 "/>
  <polygon class="fil236" points="572,10557 572,10559 573,10560 573,10558 "/>
  <polygon class="fil236" points="571,10556 571,10558 572,10559 572,10557 "/>
  <polygon class="fil237" points="569,10555 569,10557 571,10558 571,10556 "/>
  <polygon class="fil237" points="568,10555 568,10557 569,10557 569,10555 "/>
  <polygon class="fil237" points="567,10554 567,10556 568,10557 568,10555 "/>
  <polygon class="fil237" points="565,10553 565,10555 567,10556 567,10554 "/>
  <polygon class="fil238" points="564,10552 564,10554 565,10555 565,10553 "/>
  <polygon class="fil238" points="563,10552 563,10554 564,10554 564,10552 "/>
  <polygon class="fil238" points="562,10551 562,10553 563,10554 563,10552 "/>
  <polygon class="fil238" points="560,10550 560,10552 562,10553 562,10551 "/>
  <polygon class="fil239" points="559,10549 559,10551 560,10552 560,10550 "/>
  <polygon class="fil239" points="558,10549 558,10551 559,10551 559,10549 "/>
  <polygon class="fil239" points="556,10548 556,10550 558,10551 558,10549 "/>
  <polygon class="fil239" points="555,10547 555,10549 556,10550 556,10548 "/>
  <polygon class="fil240" points="554,10546 554,10548 555,10549 555,10547 "/>
  <polygon class="fil240" points="552,10546 552,10548 554,10548 554,10546 "/>
  <polygon class="fil240" points="551,10545 551,10547 552,10548 552,10546 "/>
  <polygon class="fil240" points="550,10544 550,10546 551,10547 551,10545 "/>
  <polygon class="fil241" points="548,10543 548,10545 550,10546 550,10544 "/>
  <polygon class="fil241" points="547,10543 547,10545 548,10545 548,10543 "/>
  <polygon class="fil241" points="546,10542 546,10544 547,10545 547,10543 "/>
  <polygon class="fil241" points="544,10541 544,10543 546,10544 546,10542 "/>
  <polygon class="fil242" points="543,10540 543,10542 544,10543 544,10541 "/>
  <polygon class="fil242" points="542,10540 542,10542 543,10542 543,10540 "/>
  <polygon class="fil242" points="541,10539 541,10541 542,10542 542,10540 "/>
  <polygon class="fil242" points="539,10538 539,10540 541,10541 541,10539 "/>
  <polygon class="fil243" points="538,10537 538,10539 539,10540 539,10538 "/>
  <polygon class="fil243" points="537,10537 537,10539 538,10539 538,10537 "/>
  <polygon class="fil243" points="535,10536 535,10538 537,10539 537,10537 "/>
  <polygon class="fil243" points="534,10535 534,10537 535,10538 535,10536 "/>
  <polygon class="fil244" points="533,10534 533,10536 534,10537 534,10535 "/>
  <polygon class="fil244" points="531,10534 531,10536 533,10536 533,10534 "/>
  <polygon class="fil244" points="530,10533 530,10535 531,10536 531,10534 "/>
  <polygon class="fil244" points="529,10532 529,10534 530,10535 530,10533 "/>
  <polygon class="fil245" points="527,10531 527,10533 529,10534 529,10532 "/>
  <polygon class="fil245" points="526,10531 526,10533 527,10533 527,10531 "/>
  <polygon class="fil245" points="525,10530 525,10532 526,10533 526,10531 "/>
  <polygon class="fil245" points="523,10529 523,10531 525,10532 525,10530 "/>
  <polygon class="fil246" points="522,10528 522,10530 523,10531 523,10529 "/>
  <polygon class="fil246" points="521,10528 521,10530 522,10530 522,10528 "/>
  <polygon class="fil246" points="520,10527 520,10529 521,10530 521,10528 "/>
  <polygon class="fil246" points="518,10526 518,10528 520,10529 520,10527 "/>
  <polygon class="fil247" points="517,10525 517,10527 518,10528 518,10526 "/>
  <polygon class="fil247" points="516,10525 516,10525 516,10527 517,10527 517,10525 "/>
  <polygon class="fil247" points="516,10525 516,10525 514,10526 514,10526 516,10527 "/>
  <polygon class="fil247" points="514,10526 514,10526 514,10526 "/>
  <path class="fil230" d="M277 10430c0,0 0,0 0,0 0,0 0,0 0,0zm0 -2c0,0 0,0 0,0 0,0 0,0 0,0zm0 0c0,0 0,0 0,0 0,0 0,0 0,0zm0 0c1,-14 9,-23 20,-23 -5,0 -9,2 -12,5l0 0 0 0c0,0 -1,1 -1,1l0 0c-4,4 -6,10 -6,17z"/>
  <path class="fil248" d="M285 10409l0 0c0,0 0,0 0,0z"/>
  <polygon class="fil248" points="284,10410 285,10411 285,10411 284,10410 284,10410 "/>
  <path class="fil248" d="M283 10411l1 1c0,0 1,-1 1,-1l-1 -1c0,0 -1,1 -1,1z"/>
  <path class="fil248" d="M282 10413l1 1c0,0 1,-1 1,-1l-1 -1c0,0 -1,1 -1,1z"/>
  <path class="fil249" d="M281 10414l1 1c0,0 1,-1 1,-1l-1 -1c0,0 0,1 -1,1z"/>
  <path class="fil249" d="M281 10415l1 1c0,0 0,-1 1,-1l-1 -1c0,0 0,1 -1,1z"/>
  <path class="fil249" d="M280 10416l1 1c0,0 0,-1 1,-1l-1 -1c0,0 0,1 -1,1z"/>
  <path class="fil249" d="M279 10417l1 1c0,0 0,-1 1,-1l-1 -1c0,0 0,1 -1,1z"/>
  <path class="fil250" d="M279 10419l1 1c0,0 0,-1 1,-1l-1 -1c0,0 0,1 0,1z"/>
  <path class="fil250" d="M279 10420l0 0 0 -1 -1 -1c0,0 0,1 0,1z"/>
  <path class="fil250" d="M278 10422l0 0c0,0 0,-1 0,-1l0 0 0 1z"/>
  <path class="fil250" d="M278 10423l0 0c0,0 0,-1 0,-1l0 0c0,0 0,1 0,2z"/>
  <path class="fil250" d="M278 10425l0 0c0,-1 0,-1 0,-2l0 0 0 2z"/>
  <path class="fil251" d="M278 10426l0 0c0,-1 0,-1 0,-2l0 0 0 2z"/>
  <path class="fil251" d="M277 10428l0 0c0,-1 0,-1 0,-2l0 0 0 1c0,0 0,0 0,0 0,0 0,0 0,0 0,0 0,0 0,0 0,0 0,0 0,0l0 1z"/>
  <path class="fil251" d="M277 10430l0 0c0,-1 0,-1 0,-2l0 0c0,1 0,1 0,2 0,0 0,0 0,0 0,0 0,0 0,0l0 0z"/>
  <path class="fil251" d="M277 10430l0 0 0 2c0,-1 0,-1 0,-2z"/>
  <polygon class="fil252" points="277,10432 277,10432 "/>
  <path class="fil230" d="M297 10405c0,0 0,0 0,0 0,0 0,0 0,0z"/>
  <path class="fil253" d="M284 10411l4 -4c-1,1 -2,1 -3,2 0,0 0,0 0,0 0,0 -1,1 -1,1l0 0z"/>
  <path class="fil253" d="M285 10411l5 -5c-1,0 -1,1 -2,1l-4 4 1 1z"/>
  <path class="fil253" d="M288 10409l3 -3c-1,0 -1,0 -2,1l-5 5 0 0c1,-1 2,-2 3,-2z"/>
  <path class="fil253" d="M290 10408l3 -3c0,0 -1,0 -1,0l-3 3c1,0 1,-1 2,-1z"/>
  <path class="fil254" d="M292 10407l3 -3c0,0 -1,0 -1,0l-3 3c1,0 1,0 2,-1z"/>
  <path class="fil254" d="M293 10407l2 -2c0,0 -1,0 -1,0l-3 3c0,0 1,0 1,0z"/>
  <path class="fil254" d="M295 10407l2 -2c0,0 -1,0 -1,0l-2 2c0,0 1,0 1,0z"/>
  <path class="fil254" d="M296 10407l2 -2 -1 0c0,0 0,0 0,0 0,0 0,0 0,0l0 0 0 0 -2 2c0,0 1,0 1,0z"/>
  <path class="fil254" d="M297 10407l2 -2 -1 0 -2 2c0,0 1,0 1,0z"/>
  <polygon class="fil255" points="298,10407 300,10405 299,10405 297,10407 297,10407 "/>
  <polygon class="fil255" points="299,10407 301,10405 300,10405 298,10407 "/>
  <polygon class="fil256" points="300,10407 302,10405 301,10405 299,10407 "/>
  <polygon class="fil256" points="301,10407 303,10405 302,10405 300,10407 "/>
  <polygon class="fil257" points="302,10407 304,10406 303,10405 301,10407 "/>
  <polygon class="fil257" points="303,10407 304,10406 304,10406 302,10407 "/>
  <polygon class="fil257" points="304,10408 305,10406 304,10406 303,10407 "/>
  <polygon class="fil257" points="305,10408 306,10406 305,10406 304,10408 "/>
  <polygon class="fil257" points="305,10408 307,10407 306,10406 305,10408 "/>
  <polygon class="fil258" points="306,10408 308,10407 307,10407 305,10408 "/>
  <polygon class="fil258" points="307,10409 309,10407 308,10407 306,10408 "/>
  <polygon class="fil258" points="308,10409 309,10408 309,10407 307,10409 "/>
  <polygon class="fil258" points="309,10409 310,10408 309,10408 308,10409 "/>
  <polygon class="fil258" points="309,10410 311,10408 310,10408 309,10409 "/>
  <polygon class="fil259" points="310,10410 312,10409 311,10408 309,10410 "/>
  <polygon class="fil259" points="311,10410 312,10409 312,10409 310,10410 "/>
  <polygon class="fil260" points="312,10411 313,10410 313,10409 312,10409 311,10410 "/>
  <polygon class="fil260" points="312,10411 314,10410 313,10410 312,10411 "/>
  <polygon class="fil261" points="313,10412 314,10410 314,10410 312,10411 313,10411 "/>
  <polygon class="fil261" points="314,10412 315,10411 314,10410 313,10412 "/>
  <polygon class="fil261" points="314,10412 316,10411 315,10411 314,10412 "/>
  <polygon class="fil261" points="315,10413 316,10412 316,10411 314,10412 "/>
  <polygon class="fil261" points="316,10413 317,10412 316,10412 315,10413 "/>
  <polygon class="fil262" points="317,10414 318,10412 317,10412 316,10413 "/>
  <polygon class="fil262" points="317,10414 319,10413 318,10412 317,10414 "/>
  <polygon class="fil262" points="318,10414 319,10413 319,10413 317,10414 "/>
  <polygon class="fil262" points="319,10415 320,10414 319,10413 318,10414 "/>
  <polygon class="fil262" points="319,10415 321,10414 320,10414 319,10415 "/>
  <polygon class="fil263" points="320,10416 321,10414 321,10414 319,10415 "/>
  <polygon class="fil263" points="321,10416 322,10415 321,10414 320,10416 "/>
  <polygon class="fil264" points="321,10416 323,10415 322,10415 321,10416 "/>
  <polygon class="fil264" points="322,10417 323,10416 323,10415 321,10416 "/>
  <polygon class="fil265" points="323,10417 324,10416 323,10416 322,10417 "/>
  <polygon class="fil265" points="324,10418 325,10416 324,10416 323,10417 "/>
  <polygon class="fil265" points="324,10418 326,10417 325,10416 324,10418 "/>
  <polygon class="fil265" points="325,10418 326,10417 326,10417 324,10418 "/>
  <polygon class="fil265" points="326,10419 327,10418 326,10417 325,10418 "/>
  <polygon class="fil266" points="326,10419 328,10418 327,10418 326,10419 "/>
  <polygon class="fil266" points="327,10420 328,10418 328,10418 326,10419 "/>
  <polygon class="fil266" points="328,10420 329,10419 328,10418 327,10420 "/>
  <polygon class="fil266" points="329,10420 330,10419 329,10419 328,10420 "/>
  <polygon class="fil267" points="329,10421 331,10420 330,10419 329,10420 "/>
  <polygon class="fil267" points="330,10421 331,10420 331,10420 329,10421 "/>
  <polygon class="fil267" points="331,10422 332,10420 331,10420 330,10421 "/>
  <polygon class="fil268" points="331,10422 333,10421 332,10420 331,10422 "/>
  <polygon class="fil268" points="332,10422 333,10421 333,10421 331,10422 "/>
  <polygon class="fil269" points="333,10423 334,10422 333,10421 332,10422 "/>
  <polygon class="fil269" points="333,10423 335,10422 334,10422 333,10423 "/>
  <polygon class="fil269" points="334,10424 335,10422 335,10422 333,10423 "/>
  <polygon class="fil269" points="335,10424 336,10423 335,10422 334,10424 "/>
  <polygon class="fil269" points="336,10424 337,10423 336,10423 335,10424 "/>
  <polygon class="fil270" points="336,10425 338,10424 337,10423 336,10424 "/>
  <polygon class="fil270" points="337,10425 338,10424 338,10424 336,10425 "/>
  <polygon class="fil270" points="338,10426 339,10424 338,10424 337,10425 "/>
  <polygon class="fil270" points="338,10426 340,10425 339,10424 338,10426 "/>
  <polygon class="fil271" points="339,10426 340,10425 340,10425 338,10426 "/>
  <polygon class="fil271" points="340,10427 341,10426 340,10425 339,10426 "/>
  <polygon class="fil271" points="340,10427 342,10426 341,10426 340,10427 "/>
  <polygon class="fil272" points="341,10428 342,10426 342,10426 340,10427 "/>
  <polygon class="fil272" points="342,10428 343,10427 342,10426 341,10428 "/>
  <polygon class="fil273" points="343,10428 344,10427 343,10427 342,10428 "/>
  <polygon class="fil273" points="343,10429 345,10428 344,10427 343,10428 "/>
  <polygon class="fil273" points="344,10429 345,10428 345,10428 343,10429 "/>
  <polygon class="fil273" points="345,10430 346,10428 345,10428 344,10429 "/>
  <polygon class="fil273" points="345,10430 347,10429 346,10428 345,10430 "/>
  <polygon class="fil274" points="346,10430 347,10429 347,10429 345,10430 "/>
  <polygon class="fil274" points="347,10431 348,10430 347,10429 346,10430 "/>
  <polygon class="fil274" points="347,10431 349,10430 348,10430 347,10431 "/>
  <polygon class="fil274" points="348,10432 349,10430 349,10430 347,10431 "/>
  <polygon class="fil274" points="349,10432 350,10431 349,10430 348,10432 "/>
  <polygon class="fil274" points="350,10432 351,10431 350,10431 349,10432 "/>
  <polygon class="fil274" points="350,10433 352,10432 351,10431 350,10432 "/>
  <polygon class="fil275" points="351,10433 352,10432 352,10432 350,10433 "/>
  <polygon class="fil275" points="352,10434 353,10432 352,10432 351,10433 "/>
  <polygon class="fil275" points="352,10434 354,10433 353,10432 352,10434 "/>
  <polygon class="fil275" points="353,10434 354,10433 354,10433 352,10434 "/>
  <polygon class="fil275" points="354,10435 355,10434 354,10433 353,10434 "/>
  <polygon class="fil276" points="355,10435 356,10434 355,10434 354,10435 "/>
  <polygon class="fil276" points="355,10436 357,10434 356,10434 355,10435 "/>
  <polygon class="fil277" points="356,10436 357,10435 357,10434 355,10436 "/>
  <polygon class="fil277" points="357,10436 358,10435 357,10435 356,10436 "/>
  <polygon class="fil277" points="357,10437 359,10436 358,10435 357,10436 "/>
  <polygon class="fil277" points="358,10437 359,10436 359,10436 357,10437 "/>
  <polygon class="fil277" points="359,10438 360,10436 359,10436 358,10437 "/>
  <polygon class="fil277" points="359,10438 361,10437 360,10436 359,10438 "/>
  <polygon class="fil277" points="360,10438 361,10437 361,10437 359,10438 "/>
  <polygon class="fil278" points="361,10439 362,10438 361,10437 360,10438 "/>
  <polygon class="fil278" points="362,10439 363,10438 362,10438 361,10439 "/>
  <polygon class="fil278" points="362,10440 364,10438 363,10438 362,10439 "/>
  <polygon class="fil278" points="363,10440 364,10439 364,10438 362,10440 "/>
  <polygon class="fil279" points="364,10440 365,10439 364,10439 363,10440 "/>
  <polygon class="fil279" points="364,10441 366,10440 365,10439 364,10440 "/>
  <polygon class="fil279" points="365,10441 366,10440 366,10440 364,10441 "/>
  <polygon class="fil279" points="366,10442 367,10440 366,10440 365,10441 "/>
  <polygon class="fil280" points="366,10442 368,10441 367,10440 366,10442 "/>
  <polygon class="fil280" points="367,10442 368,10441 368,10441 366,10442 "/>
  <polygon class="fil280" points="368,10443 369,10442 368,10441 367,10442 "/>
  <polygon class="fil280" points="369,10443 370,10442 369,10442 368,10443 "/>
  <polygon class="fil280" points="369,10444 371,10442 370,10442 369,10443 "/>
  <polygon class="fil280" points="370,10444 371,10443 371,10442 369,10444 "/>
  <polygon class="fil280" points="371,10444 372,10443 371,10443 370,10444 "/>
  <polygon class="fil281" points="371,10445 373,10444 372,10443 371,10444 "/>
  <polygon class="fil281" points="372,10445 373,10444 373,10444 371,10445 "/>
  <polygon class="fil282" points="373,10446 374,10444 373,10444 372,10445 "/>
  <polygon class="fil282" points="374,10446 375,10445 374,10444 373,10446 "/>
  <polygon class="fil282" points="374,10446 376,10445 375,10445 374,10446 "/>
  <polygon class="fil282" points="375,10447 376,10446 376,10445 374,10446 "/>
  <polygon class="fil282" points="376,10447 377,10446 376,10446 375,10447 "/>
  <polygon class="fil283" points="376,10448 378,10446 377,10446 376,10447 "/>
  <polygon class="fil283" points="377,10448 378,10447 378,10446 376,10448 "/>
  <polygon class="fil283" points="378,10448 379,10447 378,10447 377,10448 "/>
  <polygon class="fil283" points="378,10449 380,10447 379,10447 378,10448 "/>
  <polygon class="fil283" points="379,10449 380,10448 380,10447 378,10449 "/>
  <polygon class="fil283" points="380,10450 381,10448 380,10448 379,10449 "/>
  <polygon class="fil283" points="381,10450 382,10449 381,10448 380,10450 "/>
  <polygon class="fil283" points="382,10449 381,10450 514,10526 516,10525 516,10525 "/>
 </g>
</svg>
